%TF.GenerationSoftware,KiCad,Pcbnew,(6.0.10)*%
%TF.CreationDate,2023-02-15T12:42:23-05:00*%
%TF.ProjectId,Incredibly Cheap RS323,496e6372-6564-4696-926c-792043686561,rev?*%
%TF.SameCoordinates,Original*%
%TF.FileFunction,Legend,Top*%
%TF.FilePolarity,Positive*%
%FSLAX46Y46*%
G04 Gerber Fmt 4.6, Leading zero omitted, Abs format (unit mm)*
G04 Created by KiCad (PCBNEW (6.0.10)) date 2023-02-15 12:42:23*
%MOMM*%
%LPD*%
G01*
G04 APERTURE LIST*
%ADD10C,0.150000*%
%ADD11C,0.120000*%
G04 APERTURE END LIST*
D10*
X81857904Y-46875238D02*
X82429333Y-46875238D01*
X82543619Y-46913333D01*
X82619809Y-46989523D01*
X82657904Y-47103809D01*
X82657904Y-47180000D01*
X82657904Y-46113333D02*
X82657904Y-46494285D01*
X81857904Y-46494285D01*
X82581714Y-45389523D02*
X82619809Y-45427619D01*
X82657904Y-45541904D01*
X82657904Y-45618095D01*
X82619809Y-45732380D01*
X82543619Y-45808571D01*
X82467428Y-45846666D01*
X82315047Y-45884761D01*
X82200761Y-45884761D01*
X82048380Y-45846666D01*
X81972190Y-45808571D01*
X81896000Y-45732380D01*
X81857904Y-45618095D01*
X81857904Y-45541904D01*
X81896000Y-45427619D01*
X81934095Y-45389523D01*
X81857904Y-44818095D02*
X82429333Y-44818095D01*
X82543619Y-44856190D01*
X82619809Y-44932380D01*
X82657904Y-45046666D01*
X82657904Y-45122857D01*
X82657904Y-44056190D02*
X82657904Y-44437142D01*
X81857904Y-44437142D01*
X82581714Y-43332380D02*
X82619809Y-43370476D01*
X82657904Y-43484761D01*
X82657904Y-43560952D01*
X82619809Y-43675238D01*
X82543619Y-43751428D01*
X82467428Y-43789523D01*
X82315047Y-43827619D01*
X82200761Y-43827619D01*
X82048380Y-43789523D01*
X81972190Y-43751428D01*
X81896000Y-43675238D01*
X81857904Y-43560952D01*
X81857904Y-43484761D01*
X81896000Y-43370476D01*
X81934095Y-43332380D01*
X81857904Y-42760952D02*
X82429333Y-42760952D01*
X82543619Y-42799047D01*
X82619809Y-42875238D01*
X82657904Y-42989523D01*
X82657904Y-43065714D01*
X82657904Y-41999047D02*
X82657904Y-42380000D01*
X81857904Y-42380000D01*
X82581714Y-41275238D02*
X82619809Y-41313333D01*
X82657904Y-41427619D01*
X82657904Y-41503809D01*
X82619809Y-41618095D01*
X82543619Y-41694285D01*
X82467428Y-41732380D01*
X82315047Y-41770476D01*
X82200761Y-41770476D01*
X82048380Y-41732380D01*
X81972190Y-41694285D01*
X81896000Y-41618095D01*
X81857904Y-41503809D01*
X81857904Y-41427619D01*
X81896000Y-41313333D01*
X81934095Y-41275238D01*
X81857904Y-40703809D02*
X82429333Y-40703809D01*
X82543619Y-40741904D01*
X82619809Y-40818095D01*
X82657904Y-40932380D01*
X82657904Y-41008571D01*
X82657904Y-39941904D02*
X82657904Y-40322857D01*
X81857904Y-40322857D01*
X82581714Y-39218095D02*
X82619809Y-39256190D01*
X82657904Y-39370476D01*
X82657904Y-39446666D01*
X82619809Y-39560952D01*
X82543619Y-39637142D01*
X82467428Y-39675238D01*
X82315047Y-39713333D01*
X82200761Y-39713333D01*
X82048380Y-39675238D01*
X81972190Y-39637142D01*
X81896000Y-39560952D01*
X81857904Y-39446666D01*
X81857904Y-39370476D01*
X81896000Y-39256190D01*
X81934095Y-39218095D01*
D11*
%TO.C,J3*%
X94986000Y-45406000D02*
X87306000Y-45406000D01*
X87306000Y-45406000D02*
X87306000Y-48066000D01*
X94986000Y-45406000D02*
X94986000Y-48066000D01*
X96256000Y-45406000D02*
X97586000Y-45406000D01*
X94986000Y-48066000D02*
X87306000Y-48066000D01*
X97586000Y-45406000D02*
X97586000Y-46736000D01*
%TO.C,R1*%
X88357942Y-43702500D02*
X88832458Y-43702500D01*
X88357942Y-42657500D02*
X88832458Y-42657500D01*
%TO.C,SW1*%
X88142400Y-39310400D02*
X88142400Y-40100400D01*
X93192400Y-41150400D02*
X91492400Y-41150400D01*
X94442400Y-38300400D02*
X88742400Y-38300400D01*
X91694000Y-38150800D02*
X91694000Y-38300400D01*
X95042400Y-40100400D02*
X95042400Y-39310400D01*
X90192400Y-41150400D02*
X89992400Y-41150400D01*
X92992400Y-38300400D02*
X92992400Y-38150800D01*
%TO.C,C4*%
X96168800Y-43834164D02*
X96168800Y-44049836D01*
X95448800Y-43834164D02*
X95448800Y-44049836D01*
%TO.C,C3*%
X91901600Y-43834164D02*
X91901600Y-44049836D01*
X91181600Y-43834164D02*
X91181600Y-44049836D01*
%TO.C,J1*%
X79788000Y-38480000D02*
X79502000Y-38480000D01*
X83688000Y-47880000D02*
X81688000Y-47880000D01*
X79788000Y-47880000D02*
X79502000Y-47880000D01*
X83688000Y-38480000D02*
X81688000Y-38480000D01*
%TO.C,R2*%
X88357942Y-45226500D02*
X88832458Y-45226500D01*
X88357942Y-44181500D02*
X88832458Y-44181500D01*
%TO.C,U2*%
X93026000Y-45102000D02*
X94426000Y-45102000D01*
X94426000Y-42782000D02*
X92526000Y-42782000D01*
%TO.C,C2*%
X90936400Y-43834164D02*
X90936400Y-44049836D01*
X90216400Y-43834164D02*
X90216400Y-44049836D01*
%TO.C,C1*%
X96414000Y-44049836D02*
X96414000Y-43834164D01*
X97134000Y-44049836D02*
X97134000Y-43834164D01*
%TD*%
M02*
