%TF.GenerationSoftware,KiCad,Pcbnew,(6.0.10)*%
%TF.CreationDate,2023-02-15T12:42:22-05:00*%
%TF.ProjectId,Incredibly Cheap RS323,496e6372-6564-4696-926c-792043686561,rev?*%
%TF.SameCoordinates,Original*%
%TF.FileFunction,Copper,L2,Bot*%
%TF.FilePolarity,Positive*%
%FSLAX46Y46*%
G04 Gerber Fmt 4.6, Leading zero omitted, Abs format (unit mm)*
G04 Created by KiCad (PCBNEW (6.0.10)) date 2023-02-15 12:42:22*
%MOMM*%
%LPD*%
G01*
G04 APERTURE LIST*
G04 Aperture macros list*
%AMRoundRect*
0 Rectangle with rounded corners*
0 $1 Rounding radius*
0 $2 $3 $4 $5 $6 $7 $8 $9 X,Y pos of 4 corners*
0 Add a 4 corners polygon primitive as box body*
4,1,4,$2,$3,$4,$5,$6,$7,$8,$9,$2,$3,0*
0 Add four circle primitives for the rounded corners*
1,1,$1+$1,$2,$3*
1,1,$1+$1,$4,$5*
1,1,$1+$1,$6,$7*
1,1,$1+$1,$8,$9*
0 Add four rect primitives between the rounded corners*
20,1,$1+$1,$2,$3,$4,$5,0*
20,1,$1+$1,$4,$5,$6,$7,0*
20,1,$1+$1,$6,$7,$8,$9,0*
20,1,$1+$1,$8,$9,$2,$3,0*%
G04 Aperture macros list end*
%TA.AperFunction,ComponentPad*%
%ADD10R,1.700000X1.700000*%
%TD*%
%TA.AperFunction,ComponentPad*%
%ADD11O,1.700000X1.700000*%
%TD*%
%TA.AperFunction,ComponentPad*%
%ADD12O,2.100000X1.000000*%
%TD*%
%TA.AperFunction,ComponentPad*%
%ADD13O,1.600000X1.000000*%
%TD*%
%TA.AperFunction,SMDPad,CuDef*%
%ADD14RoundRect,0.150000X-0.675000X-0.150000X0.675000X-0.150000X0.675000X0.150000X-0.675000X0.150000X0*%
%TD*%
%TA.AperFunction,ViaPad*%
%ADD15C,0.600000*%
%TD*%
%TA.AperFunction,Conductor*%
%ADD16C,0.150000*%
%TD*%
%TA.AperFunction,Conductor*%
%ADD17C,0.250000*%
%TD*%
G04 APERTURE END LIST*
D10*
%TO.P,J3,1,Pin_1*%
%TO.N,Vout*%
X96256000Y-46736000D03*
D11*
%TO.P,J3,2,Pin_2*%
%TO.N,TX*%
X93716000Y-46736000D03*
%TO.P,J3,3,Pin_3*%
%TO.N,RX*%
X91176000Y-46736000D03*
%TO.P,J3,4,Pin_4*%
%TO.N,GND*%
X88636000Y-46736000D03*
%TD*%
D12*
%TO.P,J1,S1,SHIELD*%
%TO.N,unconnected-(J1-PadS1)*%
X84918000Y-47500000D03*
D13*
X80738000Y-47500000D03*
D12*
X84918000Y-38860000D03*
D13*
X80738000Y-38860000D03*
%TD*%
D14*
%TO.P,U1,1,UD+*%
%TO.N,D+*%
X80788600Y-45085000D03*
%TO.P,U1,2,UD-*%
%TO.N,D-*%
X80788600Y-43815000D03*
%TO.P,U1,3,GND*%
%TO.N,GND*%
X80788600Y-42545000D03*
%TO.P,U1,4,~{RTS*%
%TO.N,unconnected-(U1-Pad4)*%
X80788600Y-41275000D03*
%TO.P,U1,5,VCC*%
%TO.N,Vout*%
X86038600Y-41275000D03*
%TO.P,U1,6,TXD*%
%TO.N,TX*%
X86038600Y-42545000D03*
%TO.P,U1,7,RXD*%
%TO.N,RX*%
X86038600Y-43815000D03*
%TO.P,U1,8,V3*%
%TO.N,Net-(C2-Pad2)*%
X86038600Y-45085000D03*
%TD*%
D15*
%TO.N,GND*%
X84201000Y-42164000D03*
X95383663Y-44133428D03*
X82677000Y-40132000D03*
X88087200Y-41960800D03*
X96469200Y-42164000D03*
X82677000Y-45974000D03*
X94843600Y-47650400D03*
X92405200Y-40792400D03*
X86614000Y-39014400D03*
X87223600Y-45821600D03*
%TO.N,D+*%
X83984819Y-44105000D03*
%TO.N,D-*%
X83984819Y-43255000D03*
%TO.N,Net-(C2-Pad2)*%
X89865200Y-45669200D03*
%TO.N,Vout*%
X91389200Y-41452800D03*
%TD*%
D16*
%TO.N,D+*%
X83026533Y-43830001D02*
X83709820Y-43830001D01*
X83026533Y-43830001D02*
X82256533Y-44600001D01*
X83709820Y-43830001D02*
X83984819Y-44105000D01*
X81273599Y-44600001D02*
X80788600Y-45085000D01*
X82256533Y-44600001D02*
X81273599Y-44600001D01*
%TO.N,D-*%
X82902267Y-43529999D02*
X82132267Y-44299999D01*
X82132267Y-44299999D02*
X81273599Y-44299999D01*
X81273599Y-44299999D02*
X80788600Y-43815000D01*
X83709820Y-43529999D02*
X83984819Y-43255000D01*
X82902267Y-43529999D02*
X83709820Y-43529999D01*
%TO.N,TX*%
X89525000Y-42545000D02*
X93716000Y-46736000D01*
X86038600Y-42545000D02*
X89525000Y-42545000D01*
%TO.N,RX*%
X91176000Y-46736000D02*
X91287600Y-46624400D01*
X91287600Y-45669200D02*
X89433400Y-43815000D01*
X91287600Y-46624400D02*
X91287600Y-45669200D01*
X89433400Y-43815000D02*
X86038600Y-43815000D01*
%TO.N,Net-(C2-Pad2)*%
X86038600Y-45085000D02*
X89281000Y-45085000D01*
X89281000Y-45085000D02*
X89865200Y-45669200D01*
D17*
%TO.N,Vout*%
X91211400Y-41275000D02*
X86038600Y-41275000D01*
X92557600Y-42621200D02*
X91211400Y-41275000D01*
X93776800Y-44704000D02*
X93776800Y-43027600D01*
X94386400Y-45313600D02*
X93776800Y-44704000D01*
X96113600Y-46736000D02*
X96256000Y-46736000D01*
X93370400Y-42621200D02*
X92557600Y-42621200D01*
X93776800Y-43027600D02*
X93370400Y-42621200D01*
X94833600Y-45313600D02*
X94386400Y-45313600D01*
X96256000Y-46736000D02*
X94833600Y-45313600D01*
%TD*%
%TA.AperFunction,Conductor*%
%TO.N,GND*%
G36*
X79880769Y-38317813D02*
G01*
X79906079Y-38361650D01*
X79897289Y-38411500D01*
X79888455Y-38423726D01*
X79858560Y-38457279D01*
X79779224Y-38607119D01*
X79778137Y-38611445D01*
X79778137Y-38611446D01*
X79777488Y-38614032D01*
X79737919Y-38771559D01*
X79737031Y-38941105D01*
X79776612Y-39105968D01*
X79854375Y-39256631D01*
X79857304Y-39259989D01*
X79857305Y-39259990D01*
X79892566Y-39300410D01*
X79965831Y-39384396D01*
X79969485Y-39386964D01*
X79969486Y-39386965D01*
X79976427Y-39391843D01*
X80104547Y-39481887D01*
X80262513Y-39543476D01*
X80391826Y-39560500D01*
X81080516Y-39560500D01*
X81082729Y-39560232D01*
X81082732Y-39560232D01*
X81201891Y-39545812D01*
X81206320Y-39545276D01*
X81307865Y-39506905D01*
X81360753Y-39486921D01*
X81360755Y-39486920D01*
X81364923Y-39485345D01*
X81425693Y-39443579D01*
X81500969Y-39391843D01*
X81500971Y-39391841D01*
X81504651Y-39389312D01*
X81546137Y-39342750D01*
X81614470Y-39266055D01*
X81614472Y-39266052D01*
X81617440Y-39262721D01*
X81696776Y-39112881D01*
X81697863Y-39108554D01*
X81736994Y-38952769D01*
X81736994Y-38952768D01*
X81738081Y-38948441D01*
X81738969Y-38778895D01*
X81699388Y-38614032D01*
X81621625Y-38463369D01*
X81616313Y-38457279D01*
X81599233Y-38437701D01*
X81586536Y-38423145D01*
X81568314Y-38375921D01*
X81584710Y-38328031D01*
X81628053Y-38301884D01*
X81642300Y-38300500D01*
X83763203Y-38300500D01*
X83810769Y-38317813D01*
X83836079Y-38361650D01*
X83827289Y-38411500D01*
X83818455Y-38423726D01*
X83788560Y-38457279D01*
X83709224Y-38607119D01*
X83708137Y-38611445D01*
X83708137Y-38611446D01*
X83707488Y-38614032D01*
X83667919Y-38771559D01*
X83667031Y-38941105D01*
X83706612Y-39105968D01*
X83784375Y-39256631D01*
X83787304Y-39259989D01*
X83787305Y-39259990D01*
X83822566Y-39300410D01*
X83895831Y-39384396D01*
X83899485Y-39386964D01*
X83899486Y-39386965D01*
X83906427Y-39391843D01*
X84034547Y-39481887D01*
X84192513Y-39543476D01*
X84321826Y-39560500D01*
X85510516Y-39560500D01*
X85512729Y-39560232D01*
X85512732Y-39560232D01*
X85631891Y-39545812D01*
X85636320Y-39545276D01*
X85737865Y-39506905D01*
X85790753Y-39486921D01*
X85790755Y-39486920D01*
X85794923Y-39485345D01*
X85855693Y-39443579D01*
X85930969Y-39391843D01*
X85930971Y-39391841D01*
X85934651Y-39389312D01*
X85976137Y-39342750D01*
X86044470Y-39266055D01*
X86044472Y-39266052D01*
X86047440Y-39262721D01*
X86126776Y-39112881D01*
X86127863Y-39108554D01*
X86166994Y-38952769D01*
X86166994Y-38952768D01*
X86168081Y-38948441D01*
X86168969Y-38778895D01*
X86129388Y-38614032D01*
X86051625Y-38463369D01*
X86046313Y-38457279D01*
X86029233Y-38437701D01*
X86016536Y-38423145D01*
X85998314Y-38375921D01*
X86014710Y-38328031D01*
X86058053Y-38301884D01*
X86072300Y-38300500D01*
X97250819Y-38300500D01*
X97267402Y-38302382D01*
X97273519Y-38303789D01*
X97273522Y-38303789D01*
X97281641Y-38305656D01*
X97289767Y-38303817D01*
X97297330Y-38303830D01*
X97308777Y-38304741D01*
X97365449Y-38313717D01*
X97387463Y-38320869D01*
X97452304Y-38353907D01*
X97471030Y-38367513D01*
X97522487Y-38418970D01*
X97536093Y-38437696D01*
X97569131Y-38502537D01*
X97576283Y-38524552D01*
X97585311Y-38581557D01*
X97586222Y-38593259D01*
X97586211Y-38599520D01*
X97584344Y-38607641D01*
X97586183Y-38615768D01*
X97586183Y-38615770D01*
X97587675Y-38622362D01*
X97589500Y-38638694D01*
X97589500Y-47720819D01*
X97587618Y-47737402D01*
X97586211Y-47743519D01*
X97586211Y-47743522D01*
X97584344Y-47751641D01*
X97586183Y-47759767D01*
X97586170Y-47767330D01*
X97585259Y-47778777D01*
X97576283Y-47835449D01*
X97569131Y-47857463D01*
X97536093Y-47922304D01*
X97522487Y-47941030D01*
X97471030Y-47992487D01*
X97452304Y-48006093D01*
X97387463Y-48039131D01*
X97365448Y-48046283D01*
X97308443Y-48055311D01*
X97296741Y-48056222D01*
X97290480Y-48056211D01*
X97282359Y-48054344D01*
X97274232Y-48056183D01*
X97274230Y-48056183D01*
X97267638Y-48057675D01*
X97251306Y-48059500D01*
X86072797Y-48059500D01*
X86025231Y-48042187D01*
X85999921Y-47998350D01*
X86008711Y-47948500D01*
X86017546Y-47936273D01*
X86044470Y-47906055D01*
X86044472Y-47906052D01*
X86047440Y-47902721D01*
X86126776Y-47752881D01*
X86128020Y-47747927D01*
X86166994Y-47592769D01*
X86166994Y-47592768D01*
X86168081Y-47588441D01*
X86168969Y-47418895D01*
X86129388Y-47254032D01*
X86051625Y-47103369D01*
X86048695Y-47100010D01*
X85943104Y-46978968D01*
X85943102Y-46978966D01*
X85940169Y-46975604D01*
X85933175Y-46970688D01*
X85805105Y-46880680D01*
X85801453Y-46878113D01*
X85643487Y-46816524D01*
X85514174Y-46799500D01*
X84325484Y-46799500D01*
X84323271Y-46799768D01*
X84323268Y-46799768D01*
X84204109Y-46814188D01*
X84199680Y-46814724D01*
X84098135Y-46853095D01*
X84045247Y-46873079D01*
X84045245Y-46873080D01*
X84041077Y-46874655D01*
X84037402Y-46877181D01*
X83905031Y-46968157D01*
X83905029Y-46968159D01*
X83901349Y-46970688D01*
X83788560Y-47097279D01*
X83709224Y-47247119D01*
X83708137Y-47251445D01*
X83708137Y-47251446D01*
X83684083Y-47347210D01*
X83667919Y-47411559D01*
X83667031Y-47581105D01*
X83706612Y-47745968D01*
X83784375Y-47896631D01*
X83787304Y-47899989D01*
X83787305Y-47899990D01*
X83792596Y-47906055D01*
X83815879Y-47932744D01*
X83819464Y-47936854D01*
X83837686Y-47984079D01*
X83821290Y-48031969D01*
X83777947Y-48058116D01*
X83763700Y-48059500D01*
X81642797Y-48059500D01*
X81595231Y-48042187D01*
X81569921Y-47998350D01*
X81578711Y-47948500D01*
X81587546Y-47936273D01*
X81614470Y-47906055D01*
X81614472Y-47906052D01*
X81617440Y-47902721D01*
X81696776Y-47752881D01*
X81698020Y-47747927D01*
X81736994Y-47592769D01*
X81736994Y-47592768D01*
X81738081Y-47588441D01*
X81738969Y-47418895D01*
X81699388Y-47254032D01*
X81621625Y-47103369D01*
X81618695Y-47100010D01*
X81513104Y-46978968D01*
X81513102Y-46978966D01*
X81510169Y-46975604D01*
X81503175Y-46970688D01*
X81375105Y-46880680D01*
X81371453Y-46878113D01*
X81213487Y-46816524D01*
X81084174Y-46799500D01*
X80395484Y-46799500D01*
X80393271Y-46799768D01*
X80393268Y-46799768D01*
X80274109Y-46814188D01*
X80269680Y-46814724D01*
X80168135Y-46853095D01*
X80115247Y-46873079D01*
X80115245Y-46873080D01*
X80111077Y-46874655D01*
X80107402Y-46877181D01*
X79975031Y-46968157D01*
X79975029Y-46968159D01*
X79971349Y-46970688D01*
X79858560Y-47097279D01*
X79779224Y-47247119D01*
X79778137Y-47251445D01*
X79778137Y-47251446D01*
X79754083Y-47347210D01*
X79737919Y-47411559D01*
X79737031Y-47581105D01*
X79776612Y-47745968D01*
X79854375Y-47896631D01*
X79857304Y-47899989D01*
X79857305Y-47899990D01*
X79862596Y-47906055D01*
X79885879Y-47932744D01*
X79889464Y-47936854D01*
X79907686Y-47984079D01*
X79891290Y-48031969D01*
X79847947Y-48058116D01*
X79833700Y-48059500D01*
X79787181Y-48059500D01*
X79770598Y-48057618D01*
X79764481Y-48056211D01*
X79764478Y-48056211D01*
X79756359Y-48054344D01*
X79748233Y-48056183D01*
X79740670Y-48056170D01*
X79729223Y-48055259D01*
X79672551Y-48046283D01*
X79650537Y-48039131D01*
X79585696Y-48006093D01*
X79566970Y-47992487D01*
X79515513Y-47941030D01*
X79501907Y-47922304D01*
X79468869Y-47857463D01*
X79461717Y-47835449D01*
X79458216Y-47813344D01*
X79452839Y-47779396D01*
X79452414Y-47759357D01*
X79452708Y-47756804D01*
X79453655Y-47752718D01*
X79453656Y-47752000D01*
X79450353Y-47737520D01*
X79448500Y-47721063D01*
X79448500Y-46070000D01*
X83807534Y-46070000D01*
X83808167Y-46074808D01*
X83820645Y-46169584D01*
X83827313Y-46220236D01*
X83885302Y-46360233D01*
X83977549Y-46480451D01*
X84097767Y-46572698D01*
X84237764Y-46630687D01*
X84242566Y-46631319D01*
X84242569Y-46631320D01*
X84325180Y-46642195D01*
X84350280Y-46645500D01*
X84425720Y-46645500D01*
X84450820Y-46642195D01*
X84533431Y-46631320D01*
X84533434Y-46631319D01*
X84538236Y-46630687D01*
X84678233Y-46572698D01*
X84798451Y-46480451D01*
X84890698Y-46360233D01*
X84948687Y-46220236D01*
X84955356Y-46169584D01*
X84967833Y-46074808D01*
X84968466Y-46070000D01*
X84961094Y-46014001D01*
X84949320Y-45924569D01*
X84949319Y-45924566D01*
X84948687Y-45919764D01*
X84890698Y-45779767D01*
X84805079Y-45668187D01*
X84801406Y-45663400D01*
X84798451Y-45659549D01*
X84678233Y-45567302D01*
X84538236Y-45509313D01*
X84533434Y-45508681D01*
X84533431Y-45508680D01*
X84450820Y-45497805D01*
X84425720Y-45494500D01*
X84350280Y-45494500D01*
X84325180Y-45497805D01*
X84242569Y-45508680D01*
X84242566Y-45508681D01*
X84237764Y-45509313D01*
X84097767Y-45567302D01*
X83977549Y-45659549D01*
X83974594Y-45663400D01*
X83970921Y-45668187D01*
X83885302Y-45779767D01*
X83827313Y-45919764D01*
X83826681Y-45924566D01*
X83826680Y-45924569D01*
X83814906Y-46014001D01*
X83807534Y-46070000D01*
X79448500Y-46070000D01*
X79448500Y-45268218D01*
X79763100Y-45268218D01*
X79763495Y-45270901D01*
X79772404Y-45331423D01*
X79772405Y-45331426D01*
X79773242Y-45337112D01*
X79824668Y-45441855D01*
X79828997Y-45446176D01*
X79828998Y-45446178D01*
X79902683Y-45519734D01*
X79907250Y-45524293D01*
X79912747Y-45526980D01*
X80006534Y-45572824D01*
X80012082Y-45575536D01*
X80080382Y-45585500D01*
X81496818Y-45585500D01*
X81502963Y-45584595D01*
X81560023Y-45576196D01*
X81560026Y-45576195D01*
X81565712Y-45575358D01*
X81570872Y-45572825D01*
X81570874Y-45572824D01*
X81616717Y-45550316D01*
X81670455Y-45523932D01*
X81674776Y-45519603D01*
X81674778Y-45519602D01*
X81748572Y-45445679D01*
X81748573Y-45445677D01*
X81752893Y-45441350D01*
X81789299Y-45366872D01*
X81801612Y-45341682D01*
X81801612Y-45341681D01*
X81804136Y-45336518D01*
X81814100Y-45268218D01*
X85013100Y-45268218D01*
X85013495Y-45270901D01*
X85022404Y-45331423D01*
X85022405Y-45331426D01*
X85023242Y-45337112D01*
X85074668Y-45441855D01*
X85078997Y-45446176D01*
X85078998Y-45446178D01*
X85152683Y-45519734D01*
X85157250Y-45524293D01*
X85162747Y-45526980D01*
X85256534Y-45572824D01*
X85262082Y-45575536D01*
X85330382Y-45585500D01*
X86746818Y-45585500D01*
X86752963Y-45584595D01*
X86810023Y-45576196D01*
X86810026Y-45576195D01*
X86815712Y-45575358D01*
X86820872Y-45572825D01*
X86820874Y-45572824D01*
X86866717Y-45550316D01*
X86920455Y-45523932D01*
X86924776Y-45519603D01*
X86924778Y-45519602D01*
X86961733Y-45482582D01*
X87002893Y-45441350D01*
X87022126Y-45402003D01*
X87058569Y-45366872D01*
X87088609Y-45360500D01*
X89136232Y-45360500D01*
X89183798Y-45377813D01*
X89188558Y-45382174D01*
X89347811Y-45541427D01*
X89369203Y-45587303D01*
X89368604Y-45605137D01*
X89359591Y-45663023D01*
X89360274Y-45668246D01*
X89360274Y-45668249D01*
X89364310Y-45699114D01*
X89378180Y-45805179D01*
X89435920Y-45936403D01*
X89439312Y-45940438D01*
X89524780Y-46042116D01*
X89524783Y-46042119D01*
X89528170Y-46046148D01*
X89547710Y-46059155D01*
X89643124Y-46122669D01*
X89643127Y-46122670D01*
X89647513Y-46125590D01*
X89784357Y-46168342D01*
X89789625Y-46168439D01*
X89789628Y-46168439D01*
X89849933Y-46169544D01*
X89927699Y-46170970D01*
X89932782Y-46169584D01*
X89932784Y-46169584D01*
X90060927Y-46134648D01*
X90060929Y-46134647D01*
X90066017Y-46133260D01*
X90188191Y-46058245D01*
X90188436Y-46057975D01*
X90234178Y-46041595D01*
X90281653Y-46059155D01*
X90306734Y-46103124D01*
X90298639Y-46151244D01*
X90296550Y-46155044D01*
X90205776Y-46320162D01*
X90204682Y-46323611D01*
X90154930Y-46480451D01*
X90143484Y-46516532D01*
X90143081Y-46520123D01*
X90143081Y-46520124D01*
X90141461Y-46534570D01*
X90120520Y-46721262D01*
X90120823Y-46724871D01*
X90120823Y-46724873D01*
X90133269Y-46873079D01*
X90137759Y-46926553D01*
X90194544Y-47124586D01*
X90196196Y-47127800D01*
X90196197Y-47127803D01*
X90217106Y-47168487D01*
X90288712Y-47307818D01*
X90416677Y-47469270D01*
X90419430Y-47471613D01*
X90419433Y-47471616D01*
X90450062Y-47497683D01*
X90573564Y-47602791D01*
X90620266Y-47628892D01*
X90750239Y-47701532D01*
X90750243Y-47701534D01*
X90753398Y-47703297D01*
X90756834Y-47704414D01*
X90756840Y-47704416D01*
X90858362Y-47737402D01*
X90949329Y-47766959D01*
X91013176Y-47774572D01*
X91150294Y-47790922D01*
X91150297Y-47790922D01*
X91153894Y-47791351D01*
X91226166Y-47785790D01*
X91355689Y-47775824D01*
X91355691Y-47775824D01*
X91359300Y-47775546D01*
X91480788Y-47741626D01*
X91554244Y-47721117D01*
X91554245Y-47721117D01*
X91557725Y-47720145D01*
X91588863Y-47704416D01*
X91738376Y-47628892D01*
X91738379Y-47628890D01*
X91741610Y-47627258D01*
X91903951Y-47500424D01*
X91933292Y-47466432D01*
X92036201Y-47347210D01*
X92036203Y-47347208D01*
X92038564Y-47344472D01*
X92040347Y-47341333D01*
X92040350Y-47341329D01*
X92093868Y-47247119D01*
X92140323Y-47165344D01*
X92152812Y-47127803D01*
X92204208Y-46973299D01*
X92205351Y-46969863D01*
X92210823Y-46926553D01*
X92230913Y-46767519D01*
X92230913Y-46767513D01*
X92231171Y-46765474D01*
X92231583Y-46736000D01*
X92222679Y-46645183D01*
X92211833Y-46534570D01*
X92211480Y-46530970D01*
X92151935Y-46333749D01*
X92064039Y-46168439D01*
X92056917Y-46155044D01*
X92056916Y-46155042D01*
X92055218Y-46151849D01*
X91925011Y-45992200D01*
X91766275Y-45860882D01*
X91763085Y-45859157D01*
X91601904Y-45772007D01*
X91568297Y-45734154D01*
X91563100Y-45706913D01*
X91563100Y-45703620D01*
X91564522Y-45689184D01*
X91567075Y-45676349D01*
X91568497Y-45669200D01*
X91562510Y-45639100D01*
X91547115Y-45561705D01*
X91543066Y-45555645D01*
X91543065Y-45555643D01*
X91519071Y-45519735D01*
X91519070Y-45519734D01*
X91518982Y-45519602D01*
X91501594Y-45493578D01*
X91501593Y-45493577D01*
X91486224Y-45470576D01*
X91469282Y-45459256D01*
X91458071Y-45450055D01*
X89652545Y-43644529D01*
X89643342Y-43633315D01*
X89636073Y-43622436D01*
X89632024Y-43616376D01*
X89609023Y-43601007D01*
X89609022Y-43601006D01*
X89551974Y-43562888D01*
X89540895Y-43555485D01*
X89496029Y-43546561D01*
X89460535Y-43539500D01*
X89460532Y-43539500D01*
X89433400Y-43534103D01*
X89426251Y-43535525D01*
X89413417Y-43538078D01*
X89398980Y-43539500D01*
X87088581Y-43539500D01*
X87041015Y-43522187D01*
X87022155Y-43498113D01*
X87002532Y-43458145D01*
X86998203Y-43453824D01*
X86998202Y-43453822D01*
X86924279Y-43380028D01*
X86924277Y-43380027D01*
X86919950Y-43375707D01*
X86886851Y-43359528D01*
X86820282Y-43326988D01*
X86820281Y-43326988D01*
X86815118Y-43324464D01*
X86746818Y-43314500D01*
X85330382Y-43314500D01*
X85327699Y-43314895D01*
X85267177Y-43323804D01*
X85267174Y-43323805D01*
X85261488Y-43324642D01*
X85256328Y-43327175D01*
X85256326Y-43327176D01*
X85213274Y-43348314D01*
X85156745Y-43376068D01*
X85152424Y-43380397D01*
X85152422Y-43380398D01*
X85078628Y-43454321D01*
X85074307Y-43458650D01*
X85071620Y-43464147D01*
X85025878Y-43557726D01*
X85023064Y-43563482D01*
X85013100Y-43631782D01*
X85013100Y-43998218D01*
X85013495Y-44000901D01*
X85022404Y-44061423D01*
X85022405Y-44061426D01*
X85023242Y-44067112D01*
X85025775Y-44072272D01*
X85025776Y-44072274D01*
X85041844Y-44105000D01*
X85074668Y-44171855D01*
X85078997Y-44176176D01*
X85078998Y-44176178D01*
X85152921Y-44249972D01*
X85157250Y-44254293D01*
X85162747Y-44256980D01*
X85256534Y-44302824D01*
X85262082Y-44305536D01*
X85330382Y-44315500D01*
X86746818Y-44315500D01*
X86752963Y-44314595D01*
X86810023Y-44306196D01*
X86810026Y-44306195D01*
X86815712Y-44305358D01*
X86820872Y-44302825D01*
X86820874Y-44302824D01*
X86866717Y-44280316D01*
X86920455Y-44253932D01*
X86924776Y-44249603D01*
X86924778Y-44249602D01*
X86998073Y-44176178D01*
X87002893Y-44171350D01*
X87022126Y-44132003D01*
X87058569Y-44096872D01*
X87088609Y-44090500D01*
X89288632Y-44090500D01*
X89336198Y-44107813D01*
X89340958Y-44112174D01*
X90851210Y-45622426D01*
X90872602Y-45668302D01*
X90859501Y-45717197D01*
X90819778Y-45745741D01*
X90780572Y-45757280D01*
X90726910Y-45785334D01*
X90601209Y-45851049D01*
X90601206Y-45851051D01*
X90598002Y-45852726D01*
X90595184Y-45854992D01*
X90595182Y-45854993D01*
X90440266Y-45979548D01*
X90440263Y-45979551D01*
X90437447Y-45981815D01*
X90424303Y-45997480D01*
X90380467Y-46022790D01*
X90330617Y-46014001D01*
X90298079Y-45975225D01*
X90298078Y-45924606D01*
X90301016Y-45917659D01*
X90346910Y-45822933D01*
X90370696Y-45681554D01*
X90370847Y-45669200D01*
X90365594Y-45632522D01*
X90351270Y-45532497D01*
X90351270Y-45532496D01*
X90350523Y-45527282D01*
X90324741Y-45470576D01*
X90293366Y-45401571D01*
X90291184Y-45396772D01*
X90197600Y-45288163D01*
X90193181Y-45285299D01*
X90193179Y-45285297D01*
X90153268Y-45259428D01*
X90077295Y-45210185D01*
X89968769Y-45177729D01*
X89944992Y-45170618D01*
X89944991Y-45170618D01*
X89939939Y-45169107D01*
X89870103Y-45168680D01*
X89801850Y-45168263D01*
X89801848Y-45168263D01*
X89796576Y-45168231D01*
X89794707Y-45168765D01*
X89746581Y-45158363D01*
X89733684Y-45148068D01*
X89500145Y-44914529D01*
X89490942Y-44903315D01*
X89483673Y-44892436D01*
X89479624Y-44886376D01*
X89472860Y-44881856D01*
X89456623Y-44871007D01*
X89456622Y-44871006D01*
X89399574Y-44832888D01*
X89399565Y-44832882D01*
X89388495Y-44825485D01*
X89343629Y-44816561D01*
X89308135Y-44809500D01*
X89308132Y-44809500D01*
X89281000Y-44804103D01*
X89273851Y-44805525D01*
X89261017Y-44808078D01*
X89246580Y-44809500D01*
X87088581Y-44809500D01*
X87041015Y-44792187D01*
X87022155Y-44768113D01*
X87007891Y-44739060D01*
X87002532Y-44728145D01*
X86998203Y-44723824D01*
X86998202Y-44723822D01*
X86924279Y-44650028D01*
X86924277Y-44650027D01*
X86919950Y-44645707D01*
X86914453Y-44643020D01*
X86820282Y-44596988D01*
X86820281Y-44596988D01*
X86815118Y-44594464D01*
X86746818Y-44584500D01*
X85330382Y-44584500D01*
X85327699Y-44584895D01*
X85267177Y-44593804D01*
X85267174Y-44593805D01*
X85261488Y-44594642D01*
X85256328Y-44597175D01*
X85256326Y-44597176D01*
X85236786Y-44606770D01*
X85156745Y-44646068D01*
X85152424Y-44650397D01*
X85152422Y-44650398D01*
X85078628Y-44724321D01*
X85074307Y-44728650D01*
X85071620Y-44734147D01*
X85031099Y-44817045D01*
X85023064Y-44833482D01*
X85013100Y-44901782D01*
X85013100Y-45268218D01*
X81814100Y-45268218D01*
X81814100Y-44949501D01*
X81831413Y-44901935D01*
X81875250Y-44876625D01*
X81888100Y-44875501D01*
X82222113Y-44875501D01*
X82236549Y-44876923D01*
X82256533Y-44880898D01*
X82283665Y-44875501D01*
X82283668Y-44875501D01*
X82356881Y-44860938D01*
X82356883Y-44860937D01*
X82364028Y-44859516D01*
X82427590Y-44817045D01*
X82432155Y-44813995D01*
X82432156Y-44813994D01*
X82455157Y-44798625D01*
X82466477Y-44781684D01*
X82475679Y-44770471D01*
X83118975Y-44127175D01*
X83164851Y-44105783D01*
X83171301Y-44105501D01*
X83415130Y-44105501D01*
X83462696Y-44122814D01*
X83488505Y-44169906D01*
X83497799Y-44240979D01*
X83555539Y-44372203D01*
X83558931Y-44376238D01*
X83644399Y-44477916D01*
X83644402Y-44477919D01*
X83647789Y-44481948D01*
X83665962Y-44494045D01*
X83762743Y-44558469D01*
X83762746Y-44558470D01*
X83767132Y-44561390D01*
X83903976Y-44604142D01*
X83909244Y-44604239D01*
X83909247Y-44604239D01*
X83969552Y-44605344D01*
X84047318Y-44606770D01*
X84052401Y-44605384D01*
X84052403Y-44605384D01*
X84180546Y-44570448D01*
X84180548Y-44570447D01*
X84185636Y-44569060D01*
X84307810Y-44494045D01*
X84404019Y-44387754D01*
X84466529Y-44258733D01*
X84490315Y-44117354D01*
X84490466Y-44105000D01*
X84484225Y-44061423D01*
X84470889Y-43968297D01*
X84470889Y-43968296D01*
X84470142Y-43963082D01*
X84410803Y-43832572D01*
X84320011Y-43727203D01*
X84302078Y-43679870D01*
X84321209Y-43629242D01*
X84346767Y-43601006D01*
X84404019Y-43537754D01*
X84466529Y-43408733D01*
X84490315Y-43267354D01*
X84490466Y-43255000D01*
X84470142Y-43113082D01*
X84439415Y-43045500D01*
X84412985Y-42987371D01*
X84410803Y-42982572D01*
X84354338Y-42917042D01*
X84320659Y-42877955D01*
X84320658Y-42877954D01*
X84317219Y-42873963D01*
X84312800Y-42871099D01*
X84312798Y-42871097D01*
X84263336Y-42839038D01*
X84196914Y-42795985D01*
X84092987Y-42764904D01*
X84064611Y-42756418D01*
X84064610Y-42756418D01*
X84059558Y-42754907D01*
X83985922Y-42754457D01*
X83921465Y-42754063D01*
X83921464Y-42754063D01*
X83916195Y-42754031D01*
X83778348Y-42793428D01*
X83657099Y-42869930D01*
X83612213Y-42920754D01*
X83589299Y-42946700D01*
X83562196Y-42977388D01*
X83501266Y-43107163D01*
X83496036Y-43140753D01*
X83488075Y-43191884D01*
X83463650Y-43236220D01*
X83414956Y-43254499D01*
X82936683Y-43254499D01*
X82922247Y-43253077D01*
X82909416Y-43250525D01*
X82902267Y-43249103D01*
X82895118Y-43250525D01*
X82875143Y-43254498D01*
X82875135Y-43254499D01*
X82875132Y-43254499D01*
X82875127Y-43254500D01*
X82824901Y-43264491D01*
X82810508Y-43267354D01*
X82794772Y-43270484D01*
X82788713Y-43274532D01*
X82788714Y-43274532D01*
X82726645Y-43316005D01*
X82726644Y-43316006D01*
X82710209Y-43326988D01*
X82703643Y-43331375D01*
X82699594Y-43337435D01*
X82692325Y-43348314D01*
X82683122Y-43359528D01*
X82039825Y-44002825D01*
X81993949Y-44024217D01*
X81987499Y-44024499D01*
X81888100Y-44024499D01*
X81840534Y-44007186D01*
X81815224Y-43963349D01*
X81814100Y-43950499D01*
X81814100Y-43631782D01*
X81809570Y-43601007D01*
X81804796Y-43568577D01*
X81804795Y-43568574D01*
X81803958Y-43562888D01*
X81800324Y-43555485D01*
X81772155Y-43498113D01*
X81752532Y-43458145D01*
X81748203Y-43453824D01*
X81748202Y-43453822D01*
X81674279Y-43380028D01*
X81674277Y-43380027D01*
X81669950Y-43375707D01*
X81636851Y-43359528D01*
X81570282Y-43326988D01*
X81570281Y-43326988D01*
X81565118Y-43324464D01*
X81496818Y-43314500D01*
X80080382Y-43314500D01*
X80077699Y-43314895D01*
X80017177Y-43323804D01*
X80017174Y-43323805D01*
X80011488Y-43324642D01*
X80006328Y-43327175D01*
X80006326Y-43327176D01*
X79963274Y-43348314D01*
X79906745Y-43376068D01*
X79902424Y-43380397D01*
X79902422Y-43380398D01*
X79828628Y-43454321D01*
X79824307Y-43458650D01*
X79821620Y-43464147D01*
X79775878Y-43557726D01*
X79773064Y-43563482D01*
X79763100Y-43631782D01*
X79763100Y-43998218D01*
X79763495Y-44000901D01*
X79772404Y-44061423D01*
X79772405Y-44061426D01*
X79773242Y-44067112D01*
X79775775Y-44072272D01*
X79775776Y-44072274D01*
X79791844Y-44105000D01*
X79824668Y-44171855D01*
X79828997Y-44176176D01*
X79828998Y-44176178D01*
X79902921Y-44249972D01*
X79907250Y-44254293D01*
X79912747Y-44256980D01*
X80006534Y-44302824D01*
X80012082Y-44305536D01*
X80080382Y-44315500D01*
X80868832Y-44315500D01*
X80916398Y-44332813D01*
X80921158Y-44337174D01*
X80981658Y-44397674D01*
X81003050Y-44443550D01*
X80989949Y-44492445D01*
X80981658Y-44502326D01*
X80921158Y-44562826D01*
X80875282Y-44584218D01*
X80868832Y-44584500D01*
X80080382Y-44584500D01*
X80077699Y-44584895D01*
X80017177Y-44593804D01*
X80017174Y-44593805D01*
X80011488Y-44594642D01*
X80006328Y-44597175D01*
X80006326Y-44597176D01*
X79986786Y-44606770D01*
X79906745Y-44646068D01*
X79902424Y-44650397D01*
X79902422Y-44650398D01*
X79828628Y-44724321D01*
X79824307Y-44728650D01*
X79821620Y-44734147D01*
X79781099Y-44817045D01*
X79773064Y-44833482D01*
X79763100Y-44901782D01*
X79763100Y-45268218D01*
X79448500Y-45268218D01*
X79448500Y-42728218D01*
X85013100Y-42728218D01*
X85013495Y-42730901D01*
X85022404Y-42791423D01*
X85022405Y-42791426D01*
X85023242Y-42797112D01*
X85025775Y-42802272D01*
X85025776Y-42802274D01*
X85044946Y-42841318D01*
X85074668Y-42901855D01*
X85078997Y-42906176D01*
X85078998Y-42906178D01*
X85152921Y-42979972D01*
X85157250Y-42984293D01*
X85162747Y-42986980D01*
X85256534Y-43032824D01*
X85262082Y-43035536D01*
X85330382Y-43045500D01*
X86746818Y-43045500D01*
X86752963Y-43044595D01*
X86810023Y-43036196D01*
X86810026Y-43036195D01*
X86815712Y-43035358D01*
X86820872Y-43032825D01*
X86820874Y-43032824D01*
X86877051Y-43005242D01*
X86920455Y-42983932D01*
X86924776Y-42979603D01*
X86924778Y-42979602D01*
X86998073Y-42906178D01*
X87002893Y-42901350D01*
X87022126Y-42862003D01*
X87058569Y-42826872D01*
X87088609Y-42820500D01*
X89380232Y-42820500D01*
X89427798Y-42837813D01*
X89432558Y-42842174D01*
X92764938Y-46174554D01*
X92786330Y-46220430D01*
X92777459Y-46262529D01*
X92747520Y-46316989D01*
X92745776Y-46320162D01*
X92744682Y-46323611D01*
X92694930Y-46480451D01*
X92683484Y-46516532D01*
X92683081Y-46520123D01*
X92683081Y-46520124D01*
X92681461Y-46534570D01*
X92660520Y-46721262D01*
X92660823Y-46724871D01*
X92660823Y-46724873D01*
X92673269Y-46873079D01*
X92677759Y-46926553D01*
X92734544Y-47124586D01*
X92736196Y-47127800D01*
X92736197Y-47127803D01*
X92757106Y-47168487D01*
X92828712Y-47307818D01*
X92956677Y-47469270D01*
X92959430Y-47471613D01*
X92959433Y-47471616D01*
X92990062Y-47497683D01*
X93113564Y-47602791D01*
X93160266Y-47628892D01*
X93290239Y-47701532D01*
X93290243Y-47701534D01*
X93293398Y-47703297D01*
X93296834Y-47704414D01*
X93296840Y-47704416D01*
X93398362Y-47737402D01*
X93489329Y-47766959D01*
X93553176Y-47774572D01*
X93690294Y-47790922D01*
X93690297Y-47790922D01*
X93693894Y-47791351D01*
X93766166Y-47785790D01*
X93895689Y-47775824D01*
X93895691Y-47775824D01*
X93899300Y-47775546D01*
X94020788Y-47741626D01*
X94094244Y-47721117D01*
X94094245Y-47721117D01*
X94097725Y-47720145D01*
X94128863Y-47704416D01*
X94278376Y-47628892D01*
X94278379Y-47628890D01*
X94281610Y-47627258D01*
X94443951Y-47500424D01*
X94473292Y-47466432D01*
X94576201Y-47347210D01*
X94576203Y-47347208D01*
X94578564Y-47344472D01*
X94580347Y-47341333D01*
X94580350Y-47341329D01*
X94633868Y-47247119D01*
X94680323Y-47165344D01*
X94692812Y-47127803D01*
X94744208Y-46973299D01*
X94745351Y-46969863D01*
X94750823Y-46926553D01*
X94770913Y-46767519D01*
X94770913Y-46767513D01*
X94771171Y-46765474D01*
X94771583Y-46736000D01*
X94762679Y-46645183D01*
X94751833Y-46534570D01*
X94751480Y-46530970D01*
X94691935Y-46333749D01*
X94604039Y-46168439D01*
X94596917Y-46155044D01*
X94596916Y-46155042D01*
X94595218Y-46151849D01*
X94465011Y-45992200D01*
X94306275Y-45860882D01*
X94295384Y-45854993D01*
X94128238Y-45764618D01*
X94125055Y-45762897D01*
X94121605Y-45761829D01*
X94121600Y-45761827D01*
X93977422Y-45717197D01*
X93928254Y-45701977D01*
X93723369Y-45680443D01*
X93719765Y-45680771D01*
X93719764Y-45680771D01*
X93680140Y-45684377D01*
X93518203Y-45699114D01*
X93479337Y-45710553D01*
X93324043Y-45756258D01*
X93324041Y-45756259D01*
X93320572Y-45757280D01*
X93241559Y-45798587D01*
X93191386Y-45805282D01*
X93154950Y-45785334D01*
X89744145Y-42374529D01*
X89734942Y-42363315D01*
X89727673Y-42352436D01*
X89723624Y-42346376D01*
X89700623Y-42331007D01*
X89700622Y-42331006D01*
X89657123Y-42301941D01*
X89632495Y-42285485D01*
X89625350Y-42284064D01*
X89625348Y-42284063D01*
X89552135Y-42269500D01*
X89552132Y-42269500D01*
X89525000Y-42264103D01*
X89517851Y-42265525D01*
X89505017Y-42268078D01*
X89490580Y-42269500D01*
X87088581Y-42269500D01*
X87041015Y-42252187D01*
X87022155Y-42228113D01*
X87002532Y-42188145D01*
X86998203Y-42183824D01*
X86998202Y-42183822D01*
X86924279Y-42110028D01*
X86924277Y-42110027D01*
X86919950Y-42105707D01*
X86914453Y-42103020D01*
X86820282Y-42056988D01*
X86820281Y-42056988D01*
X86815118Y-42054464D01*
X86746818Y-42044500D01*
X85330382Y-42044500D01*
X85327699Y-42044895D01*
X85267177Y-42053804D01*
X85267174Y-42053805D01*
X85261488Y-42054642D01*
X85256328Y-42057175D01*
X85256326Y-42057176D01*
X85210483Y-42079684D01*
X85156745Y-42106068D01*
X85152424Y-42110397D01*
X85152422Y-42110398D01*
X85078628Y-42184321D01*
X85074307Y-42188650D01*
X85071620Y-42194147D01*
X85030443Y-42278387D01*
X85023064Y-42293482D01*
X85013100Y-42361782D01*
X85013100Y-42728218D01*
X79448500Y-42728218D01*
X79448500Y-41458218D01*
X79763100Y-41458218D01*
X79763495Y-41460901D01*
X79772404Y-41521423D01*
X79772405Y-41521426D01*
X79773242Y-41527112D01*
X79824668Y-41631855D01*
X79828997Y-41636176D01*
X79828998Y-41636178D01*
X79902921Y-41709972D01*
X79907250Y-41714293D01*
X79912747Y-41716980D01*
X80006534Y-41762824D01*
X80012082Y-41765536D01*
X80080382Y-41775500D01*
X81496818Y-41775500D01*
X81502963Y-41774595D01*
X81560023Y-41766196D01*
X81560026Y-41766195D01*
X81565712Y-41765358D01*
X81570872Y-41762825D01*
X81570874Y-41762824D01*
X81649871Y-41724038D01*
X81670455Y-41713932D01*
X81674776Y-41709603D01*
X81674778Y-41709602D01*
X81748572Y-41635679D01*
X81748573Y-41635677D01*
X81752893Y-41631350D01*
X81767973Y-41600500D01*
X81801612Y-41531682D01*
X81801612Y-41531681D01*
X81804136Y-41526518D01*
X81814100Y-41458218D01*
X85013100Y-41458218D01*
X85013495Y-41460901D01*
X85022404Y-41521423D01*
X85022405Y-41521426D01*
X85023242Y-41527112D01*
X85074668Y-41631855D01*
X85078997Y-41636176D01*
X85078998Y-41636178D01*
X85152921Y-41709972D01*
X85157250Y-41714293D01*
X85162747Y-41716980D01*
X85256534Y-41762824D01*
X85262082Y-41765536D01*
X85330382Y-41775500D01*
X86746818Y-41775500D01*
X86752963Y-41774595D01*
X86810023Y-41766196D01*
X86810026Y-41766195D01*
X86815712Y-41765358D01*
X86820872Y-41762825D01*
X86820874Y-41762824D01*
X86899871Y-41724038D01*
X86920455Y-41713932D01*
X86924776Y-41709603D01*
X86924778Y-41709602D01*
X86998073Y-41636178D01*
X87002893Y-41631350D01*
X87003450Y-41630211D01*
X87043247Y-41602858D01*
X87061777Y-41600500D01*
X90859051Y-41600500D01*
X90906617Y-41617813D01*
X90926784Y-41644696D01*
X90959920Y-41720003D01*
X90963312Y-41724038D01*
X91048780Y-41825716D01*
X91048783Y-41825719D01*
X91052170Y-41829748D01*
X91056557Y-41832668D01*
X91167124Y-41906269D01*
X91167127Y-41906270D01*
X91171513Y-41909190D01*
X91308357Y-41951942D01*
X91313626Y-41952039D01*
X91313628Y-41952039D01*
X91400396Y-41953630D01*
X91451365Y-41975292D01*
X92315111Y-42839038D01*
X92319472Y-42843798D01*
X92340984Y-42869436D01*
X92340987Y-42869438D01*
X92345145Y-42874394D01*
X92350747Y-42877628D01*
X92350749Y-42877630D01*
X92379744Y-42894370D01*
X92385188Y-42897838D01*
X92417916Y-42920754D01*
X92424170Y-42922430D01*
X92428687Y-42924536D01*
X92434262Y-42926846D01*
X92438950Y-42928552D01*
X92444555Y-42931788D01*
X92450927Y-42932912D01*
X92450928Y-42932912D01*
X92483904Y-42938727D01*
X92490204Y-42940124D01*
X92514454Y-42946621D01*
X92528793Y-42950463D01*
X92568582Y-42946982D01*
X92575032Y-42946700D01*
X93204922Y-42946700D01*
X93252488Y-42964013D01*
X93257248Y-42968374D01*
X93429626Y-43140753D01*
X93451018Y-43186630D01*
X93451300Y-43193079D01*
X93451300Y-44686559D01*
X93451018Y-44693009D01*
X93447536Y-44732807D01*
X93449212Y-44739060D01*
X93457878Y-44771401D01*
X93459276Y-44777706D01*
X93464882Y-44809500D01*
X93466212Y-44817045D01*
X93469447Y-44822647D01*
X93471161Y-44827358D01*
X93473449Y-44832882D01*
X93475571Y-44837432D01*
X93477246Y-44843684D01*
X93480958Y-44848986D01*
X93480959Y-44848987D01*
X93500162Y-44876411D01*
X93503628Y-44881851D01*
X93523606Y-44916455D01*
X93528566Y-44920617D01*
X93528567Y-44920618D01*
X93554215Y-44942140D01*
X93558975Y-44946501D01*
X94143906Y-45531432D01*
X94148267Y-45536191D01*
X94173945Y-45566794D01*
X94208549Y-45586772D01*
X94213989Y-45590238D01*
X94246716Y-45613154D01*
X94252968Y-45614829D01*
X94257518Y-45616951D01*
X94263042Y-45619239D01*
X94267753Y-45620953D01*
X94273355Y-45624188D01*
X94279726Y-45625311D01*
X94279728Y-45625312D01*
X94303129Y-45629438D01*
X94312697Y-45631125D01*
X94318996Y-45632521D01*
X94357593Y-45642864D01*
X94364041Y-45642300D01*
X94364043Y-45642300D01*
X94397395Y-45639382D01*
X94403844Y-45639100D01*
X94668122Y-45639100D01*
X94715688Y-45656413D01*
X94720448Y-45660774D01*
X95183826Y-46124152D01*
X95205218Y-46170028D01*
X95205500Y-46176478D01*
X95205500Y-47605748D01*
X95217133Y-47664231D01*
X95221184Y-47670293D01*
X95221184Y-47670294D01*
X95255144Y-47721117D01*
X95261448Y-47730552D01*
X95267509Y-47734602D01*
X95314803Y-47766203D01*
X95327769Y-47774867D01*
X95372295Y-47783724D01*
X95382682Y-47785790D01*
X95382683Y-47785790D01*
X95386252Y-47786500D01*
X97125748Y-47786500D01*
X97129317Y-47785790D01*
X97129318Y-47785790D01*
X97139705Y-47783724D01*
X97184231Y-47774867D01*
X97197198Y-47766203D01*
X97244491Y-47734602D01*
X97250552Y-47730552D01*
X97256856Y-47721117D01*
X97290816Y-47670294D01*
X97290816Y-47670293D01*
X97294867Y-47664231D01*
X97306500Y-47605748D01*
X97306500Y-45866252D01*
X97294867Y-45807769D01*
X97276157Y-45779767D01*
X97254602Y-45747509D01*
X97250552Y-45741448D01*
X97239636Y-45734154D01*
X97190294Y-45701184D01*
X97190293Y-45701184D01*
X97184231Y-45697133D01*
X97139705Y-45688276D01*
X97129318Y-45686210D01*
X97129317Y-45686210D01*
X97125748Y-45685500D01*
X95696478Y-45685500D01*
X95648912Y-45668187D01*
X95644152Y-45663826D01*
X95076094Y-45095768D01*
X95071733Y-45091008D01*
X95050219Y-45065369D01*
X95046055Y-45060406D01*
X95011451Y-45040428D01*
X95006011Y-45036962D01*
X94978587Y-45017759D01*
X94978586Y-45017758D01*
X94973284Y-45014046D01*
X94967032Y-45012371D01*
X94962482Y-45010249D01*
X94956958Y-45007961D01*
X94952247Y-45006247D01*
X94946645Y-45003012D01*
X94940274Y-45001889D01*
X94940272Y-45001888D01*
X94916871Y-44997762D01*
X94907303Y-44996075D01*
X94901001Y-44994678D01*
X94862407Y-44984336D01*
X94855959Y-44984900D01*
X94855958Y-44984900D01*
X94822609Y-44987818D01*
X94816159Y-44988100D01*
X94551878Y-44988100D01*
X94504312Y-44970787D01*
X94499552Y-44966426D01*
X94123974Y-44590848D01*
X94102582Y-44544972D01*
X94102300Y-44538522D01*
X94102300Y-43045030D01*
X94102582Y-43038580D01*
X94105499Y-43005242D01*
X94105499Y-43005241D01*
X94106063Y-42998793D01*
X94095723Y-42960207D01*
X94094326Y-42953905D01*
X94088512Y-42920929D01*
X94088512Y-42920928D01*
X94087388Y-42914555D01*
X94084152Y-42908950D01*
X94082443Y-42904254D01*
X94080151Y-42898721D01*
X94078029Y-42894169D01*
X94076353Y-42887916D01*
X94069379Y-42877955D01*
X94053440Y-42855192D01*
X94049972Y-42849748D01*
X94033232Y-42820753D01*
X94033231Y-42820752D01*
X94029994Y-42815145D01*
X94025036Y-42810985D01*
X94025032Y-42810980D01*
X93999391Y-42789465D01*
X93994631Y-42785104D01*
X93612900Y-42403374D01*
X93608539Y-42398614D01*
X93587021Y-42372970D01*
X93587018Y-42372968D01*
X93582855Y-42368006D01*
X93548251Y-42348028D01*
X93542811Y-42344562D01*
X93515387Y-42325359D01*
X93515386Y-42325358D01*
X93510084Y-42321646D01*
X93503832Y-42319971D01*
X93499282Y-42317849D01*
X93493758Y-42315561D01*
X93489047Y-42313847D01*
X93483445Y-42310612D01*
X93477074Y-42309489D01*
X93477072Y-42309488D01*
X93453671Y-42305362D01*
X93444103Y-42303675D01*
X93437801Y-42302278D01*
X93399207Y-42291936D01*
X93392759Y-42292500D01*
X93392758Y-42292500D01*
X93359409Y-42295418D01*
X93352959Y-42295700D01*
X92723079Y-42295700D01*
X92675513Y-42278387D01*
X92670753Y-42274026D01*
X91916261Y-41519535D01*
X91894869Y-41473659D01*
X91894877Y-41465156D01*
X91894696Y-41465154D01*
X91894812Y-41455662D01*
X91894847Y-41452800D01*
X91874523Y-41310882D01*
X91815184Y-41180372D01*
X91759125Y-41115312D01*
X91725040Y-41075755D01*
X91725039Y-41075754D01*
X91721600Y-41071763D01*
X91717181Y-41068899D01*
X91717179Y-41068897D01*
X91677268Y-41043028D01*
X91601295Y-40993785D01*
X91478010Y-40956915D01*
X91468992Y-40954218D01*
X91468991Y-40954218D01*
X91463939Y-40952707D01*
X91388230Y-40952244D01*
X91325844Y-40951863D01*
X91325843Y-40951863D01*
X91320576Y-40951831D01*
X91315512Y-40953278D01*
X91315507Y-40953279D01*
X91312391Y-40954170D01*
X91272903Y-40954497D01*
X91253201Y-40949218D01*
X91240207Y-40945736D01*
X91233759Y-40946300D01*
X91233758Y-40946300D01*
X91200409Y-40949218D01*
X91193959Y-40949500D01*
X87061775Y-40949500D01*
X87014209Y-40932187D01*
X87004029Y-40921193D01*
X87002532Y-40918145D01*
X86949795Y-40865500D01*
X86924279Y-40840028D01*
X86924277Y-40840027D01*
X86919950Y-40835707D01*
X86825924Y-40789746D01*
X86820282Y-40786988D01*
X86820281Y-40786988D01*
X86815118Y-40784464D01*
X86746818Y-40774500D01*
X85330382Y-40774500D01*
X85327699Y-40774895D01*
X85267177Y-40783804D01*
X85267174Y-40783805D01*
X85261488Y-40784642D01*
X85256328Y-40787175D01*
X85256326Y-40787176D01*
X85210483Y-40809684D01*
X85156745Y-40836068D01*
X85152424Y-40840397D01*
X85152422Y-40840398D01*
X85078628Y-40914321D01*
X85074307Y-40918650D01*
X85071620Y-40924147D01*
X85025878Y-41017726D01*
X85023064Y-41023482D01*
X85013100Y-41091782D01*
X85013100Y-41458218D01*
X81814100Y-41458218D01*
X81814100Y-41091782D01*
X81810731Y-41068897D01*
X81804796Y-41028577D01*
X81804795Y-41028574D01*
X81803958Y-41022888D01*
X81752532Y-40918145D01*
X81748203Y-40913824D01*
X81748202Y-40913822D01*
X81674279Y-40840028D01*
X81674277Y-40840027D01*
X81669950Y-40835707D01*
X81575924Y-40789746D01*
X81570282Y-40786988D01*
X81570281Y-40786988D01*
X81565118Y-40784464D01*
X81496818Y-40774500D01*
X80080382Y-40774500D01*
X80077699Y-40774895D01*
X80017177Y-40783804D01*
X80017174Y-40783805D01*
X80011488Y-40784642D01*
X80006328Y-40787175D01*
X80006326Y-40787176D01*
X79960483Y-40809684D01*
X79906745Y-40836068D01*
X79902424Y-40840397D01*
X79902422Y-40840398D01*
X79828628Y-40914321D01*
X79824307Y-40918650D01*
X79821620Y-40924147D01*
X79775878Y-41017726D01*
X79773064Y-41023482D01*
X79763100Y-41091782D01*
X79763100Y-41458218D01*
X79448500Y-41458218D01*
X79448500Y-40290000D01*
X83807534Y-40290000D01*
X83808167Y-40294808D01*
X83822093Y-40400583D01*
X83827313Y-40440236D01*
X83885302Y-40580233D01*
X83977549Y-40700451D01*
X84097767Y-40792698D01*
X84237764Y-40850687D01*
X84242566Y-40851319D01*
X84242569Y-40851320D01*
X84325180Y-40862195D01*
X84350280Y-40865500D01*
X84425720Y-40865500D01*
X84450820Y-40862195D01*
X84533431Y-40851320D01*
X84533434Y-40851319D01*
X84538236Y-40850687D01*
X84678233Y-40792698D01*
X84798451Y-40700451D01*
X84890698Y-40580233D01*
X84948687Y-40440236D01*
X84953908Y-40400583D01*
X84967833Y-40294808D01*
X84968466Y-40290000D01*
X84948687Y-40139764D01*
X84890698Y-39999767D01*
X84798451Y-39879549D01*
X84678233Y-39787302D01*
X84664238Y-39781505D01*
X89391431Y-39781505D01*
X89431012Y-39946368D01*
X89508775Y-40097031D01*
X89511704Y-40100389D01*
X89511705Y-40100390D01*
X89514088Y-40103121D01*
X89620231Y-40224796D01*
X89623885Y-40227364D01*
X89623886Y-40227365D01*
X89630827Y-40232243D01*
X89758947Y-40322287D01*
X89916913Y-40383876D01*
X90046226Y-40400900D01*
X90134916Y-40400900D01*
X90137129Y-40400632D01*
X90137132Y-40400632D01*
X90256291Y-40386212D01*
X90260720Y-40385676D01*
X90362265Y-40347305D01*
X90415153Y-40327321D01*
X90415155Y-40327320D01*
X90419323Y-40325745D01*
X90478328Y-40285192D01*
X90555369Y-40232243D01*
X90555371Y-40232241D01*
X90559051Y-40229712D01*
X90671840Y-40103121D01*
X90751176Y-39953281D01*
X90752263Y-39948954D01*
X90791394Y-39793169D01*
X90791394Y-39793168D01*
X90792481Y-39788841D01*
X90792519Y-39781505D01*
X92391431Y-39781505D01*
X92431012Y-39946368D01*
X92508775Y-40097031D01*
X92511704Y-40100389D01*
X92511705Y-40100390D01*
X92514088Y-40103121D01*
X92620231Y-40224796D01*
X92623885Y-40227364D01*
X92623886Y-40227365D01*
X92630827Y-40232243D01*
X92758947Y-40322287D01*
X92916913Y-40383876D01*
X93046226Y-40400900D01*
X93134916Y-40400900D01*
X93137129Y-40400632D01*
X93137132Y-40400632D01*
X93256291Y-40386212D01*
X93260720Y-40385676D01*
X93362265Y-40347305D01*
X93415153Y-40327321D01*
X93415155Y-40327320D01*
X93419323Y-40325745D01*
X93478328Y-40285192D01*
X93555369Y-40232243D01*
X93555371Y-40232241D01*
X93559051Y-40229712D01*
X93671840Y-40103121D01*
X93751176Y-39953281D01*
X93752263Y-39948954D01*
X93791394Y-39793169D01*
X93791394Y-39793168D01*
X93792481Y-39788841D01*
X93793369Y-39619295D01*
X93753788Y-39454432D01*
X93676025Y-39303769D01*
X93673095Y-39300410D01*
X93567504Y-39179368D01*
X93567502Y-39179366D01*
X93564569Y-39176004D01*
X93557575Y-39171088D01*
X93468597Y-39108554D01*
X93425853Y-39078513D01*
X93267887Y-39016924D01*
X93138574Y-38999900D01*
X93049884Y-38999900D01*
X93047671Y-39000168D01*
X93047668Y-39000168D01*
X92928509Y-39014588D01*
X92924080Y-39015124D01*
X92822535Y-39053495D01*
X92769647Y-39073479D01*
X92769645Y-39073480D01*
X92765477Y-39075055D01*
X92761802Y-39077581D01*
X92629431Y-39168557D01*
X92629429Y-39168559D01*
X92625749Y-39171088D01*
X92622777Y-39174424D01*
X92544107Y-39262721D01*
X92512960Y-39297679D01*
X92433624Y-39447519D01*
X92432537Y-39451845D01*
X92432537Y-39451846D01*
X92431888Y-39454432D01*
X92392319Y-39611959D01*
X92391872Y-39697322D01*
X92391695Y-39731168D01*
X92391431Y-39781505D01*
X90792519Y-39781505D01*
X90793369Y-39619295D01*
X90753788Y-39454432D01*
X90676025Y-39303769D01*
X90673095Y-39300410D01*
X90567504Y-39179368D01*
X90567502Y-39179366D01*
X90564569Y-39176004D01*
X90557575Y-39171088D01*
X90468597Y-39108554D01*
X90425853Y-39078513D01*
X90267887Y-39016924D01*
X90138574Y-38999900D01*
X90049884Y-38999900D01*
X90047671Y-39000168D01*
X90047668Y-39000168D01*
X89928509Y-39014588D01*
X89924080Y-39015124D01*
X89822535Y-39053495D01*
X89769647Y-39073479D01*
X89769645Y-39073480D01*
X89765477Y-39075055D01*
X89761802Y-39077581D01*
X89629431Y-39168557D01*
X89629429Y-39168559D01*
X89625749Y-39171088D01*
X89622777Y-39174424D01*
X89544107Y-39262721D01*
X89512960Y-39297679D01*
X89433624Y-39447519D01*
X89432537Y-39451845D01*
X89432537Y-39451846D01*
X89431888Y-39454432D01*
X89392319Y-39611959D01*
X89391872Y-39697322D01*
X89391695Y-39731168D01*
X89391431Y-39781505D01*
X84664238Y-39781505D01*
X84538236Y-39729313D01*
X84533434Y-39728681D01*
X84533431Y-39728680D01*
X84450820Y-39717805D01*
X84425720Y-39714500D01*
X84350280Y-39714500D01*
X84325180Y-39717805D01*
X84242569Y-39728680D01*
X84242566Y-39728681D01*
X84237764Y-39729313D01*
X84097767Y-39787302D01*
X83977549Y-39879549D01*
X83885302Y-39999767D01*
X83827313Y-40139764D01*
X83807534Y-40290000D01*
X79448500Y-40290000D01*
X79448500Y-38639423D01*
X79450411Y-38622713D01*
X79452708Y-38612802D01*
X79453655Y-38608718D01*
X79453656Y-38608000D01*
X79452729Y-38603934D01*
X79452356Y-38600606D01*
X79452808Y-38580803D01*
X79461717Y-38524551D01*
X79468869Y-38502537D01*
X79501907Y-38437696D01*
X79515513Y-38418970D01*
X79566970Y-38367513D01*
X79585696Y-38353907D01*
X79650537Y-38320869D01*
X79672552Y-38313717D01*
X79729557Y-38304689D01*
X79741259Y-38303778D01*
X79747520Y-38303789D01*
X79755641Y-38305656D01*
X79763768Y-38303817D01*
X79763770Y-38303817D01*
X79770362Y-38302325D01*
X79786694Y-38300500D01*
X79833203Y-38300500D01*
X79880769Y-38317813D01*
G37*
%TD.AperFunction*%
%TD*%
M02*
