%TF.GenerationSoftware,KiCad,Pcbnew,(6.0.10)*%
%TF.CreationDate,2023-02-15T12:42:23-05:00*%
%TF.ProjectId,Incredibly Cheap RS323,496e6372-6564-4696-926c-792043686561,rev?*%
%TF.SameCoordinates,Original*%
%TF.FileFunction,Legend,Bot*%
%TF.FilePolarity,Positive*%
%FSLAX46Y46*%
G04 Gerber Fmt 4.6, Leading zero omitted, Abs format (unit mm)*
G04 Created by KiCad (PCBNEW (6.0.10)) date 2023-02-15 12:42:23*
%MOMM*%
%LPD*%
G01*
G04 APERTURE LIST*
%ADD10C,0.150000*%
%ADD11C,0.120000*%
G04 APERTURE END LIST*
D10*
%TO.C,U1*%
X84226304Y-42632380D02*
X84226304Y-43441904D01*
X84178685Y-43537142D01*
X84131066Y-43584761D01*
X84035828Y-43632380D01*
X83845352Y-43632380D01*
X83750114Y-43584761D01*
X83702495Y-43537142D01*
X83654876Y-43441904D01*
X83654876Y-42632380D01*
X82654876Y-43632380D02*
X83226304Y-43632380D01*
X82940590Y-43632380D02*
X82940590Y-42632380D01*
X83035828Y-42775238D01*
X83131066Y-42870476D01*
X83226304Y-42918095D01*
%TO.C,kibuzzard-63CD5252*%
G36*
X90469971Y-45730397D02*
G01*
X90469971Y-45458993D01*
X90734555Y-45458993D01*
X91182279Y-45196063D01*
X91637445Y-45465814D01*
X91637445Y-45249393D01*
X91321186Y-45075760D01*
X91637445Y-44902127D01*
X91637445Y-44685707D01*
X91182279Y-44955458D01*
X90734555Y-44692528D01*
X90734555Y-44906468D01*
X91045854Y-45075760D01*
X90734555Y-45245052D01*
X90734555Y-45458993D01*
X90469971Y-45458993D01*
X90469971Y-44277669D01*
X90734555Y-44277669D01*
X90742478Y-44376199D01*
X90766250Y-44458468D01*
X90805868Y-44524476D01*
X90859956Y-44572707D01*
X90927136Y-44601646D01*
X91007406Y-44611292D01*
X91092130Y-44601293D01*
X91161505Y-44571295D01*
X91216928Y-44520988D01*
X91259794Y-44450062D01*
X91628764Y-44645399D01*
X91637445Y-44645399D01*
X91637445Y-44445721D01*
X91306923Y-44276429D01*
X91306923Y-44128221D01*
X91637445Y-44128221D01*
X91637445Y-43942186D01*
X90734555Y-43942186D01*
X90734555Y-44277669D01*
X90469971Y-44277669D01*
X90469971Y-43677603D01*
X91902029Y-43677603D01*
X91902029Y-45730397D01*
X90469971Y-45730397D01*
G37*
G36*
X91156234Y-44278290D02*
G01*
X91147320Y-44340456D01*
X91120578Y-44386810D01*
X91078177Y-44415646D01*
X91022289Y-44425257D01*
X90965238Y-44416188D01*
X90921830Y-44388980D01*
X90894390Y-44343014D01*
X90885243Y-44277669D01*
X90885243Y-44128221D01*
X91156234Y-44128221D01*
X91156234Y-44278290D01*
G37*
%TO.C,kibuzzard-63CD525C*%
G36*
X93009971Y-45745900D02*
G01*
X93009971Y-45474496D01*
X93274555Y-45474496D01*
X93722279Y-45211566D01*
X94177445Y-45481317D01*
X94177445Y-45264896D01*
X93861186Y-45091263D01*
X94177445Y-44917630D01*
X94177445Y-44701209D01*
X93722279Y-44970960D01*
X93274555Y-44708031D01*
X93274555Y-44921971D01*
X93585854Y-45091263D01*
X93274555Y-45260555D01*
X93274555Y-45474496D01*
X93009971Y-45474496D01*
X93009971Y-44662142D01*
X93274555Y-44662142D01*
X93425243Y-44662142D01*
X93425243Y-44385570D01*
X94177445Y-44385570D01*
X94177445Y-44199535D01*
X93425243Y-44199535D01*
X93425243Y-43926683D01*
X93274555Y-43926683D01*
X93274555Y-44662142D01*
X93009971Y-44662142D01*
X93009971Y-43662100D01*
X94442029Y-43662100D01*
X94442029Y-45745900D01*
X93009971Y-45745900D01*
G37*
D11*
%TO.C,U1*%
X83413600Y-45740000D02*
X79963600Y-45740000D01*
X83413600Y-40620000D02*
X85363600Y-40620000D01*
X83413600Y-40620000D02*
X81463600Y-40620000D01*
X83413600Y-45740000D02*
X85363600Y-45740000D01*
%TO.C,kibuzzard-63CD506C*%
G36*
X89379970Y-40475987D02*
G01*
X86557558Y-40475987D01*
X86901180Y-39330579D01*
X87429959Y-39330579D01*
X87651651Y-39330579D01*
X87700873Y-39220896D01*
X87811332Y-39181751D01*
X87878576Y-39195413D01*
X87928379Y-39236399D01*
X87959191Y-39302383D01*
X87969461Y-39391041D01*
X87957640Y-39475919D01*
X87922178Y-39538318D01*
X87865010Y-39576688D01*
X87788077Y-39589478D01*
X87715795Y-39579014D01*
X87658628Y-39547620D01*
X87636924Y-39527466D01*
X87458640Y-39571650D01*
X87523752Y-40145258D01*
X88156272Y-40145258D01*
X88156272Y-39958448D01*
X87707462Y-39958448D01*
X87695605Y-39855353D01*
X88269443Y-39855353D01*
X88503537Y-39855353D01*
X88659342Y-39290272D01*
X88815146Y-39855353D01*
X89049241Y-39855353D01*
X88766312Y-39016645D01*
X88552372Y-39016645D01*
X88269443Y-39855353D01*
X87695605Y-39855353D01*
X87679557Y-39715827D01*
X87761916Y-39747802D01*
X87849314Y-39758460D01*
X87949049Y-39747350D01*
X88033282Y-39714018D01*
X88102011Y-39658466D01*
X88152827Y-39582932D01*
X88183316Y-39489656D01*
X88193479Y-39378638D01*
X88181948Y-39275059D01*
X88147358Y-39182914D01*
X88091256Y-39106174D01*
X88015195Y-39048813D01*
X87921402Y-39013060D01*
X87812107Y-39001142D01*
X87713469Y-39011509D01*
X87622196Y-39042612D01*
X87543809Y-39092512D01*
X87483832Y-39159272D01*
X87444978Y-39239693D01*
X87429959Y-39330579D01*
X86901180Y-39330579D01*
X87099230Y-38670413D01*
X89921642Y-38670413D01*
X89379970Y-40475987D01*
G37*
%TO.C,kibuzzard-63CD5248*%
G36*
X87917569Y-45748517D02*
G01*
X87917569Y-44793743D01*
X88194555Y-44793743D01*
X88194555Y-45071556D01*
X88200515Y-45148140D01*
X88218395Y-45219144D01*
X88248195Y-45284566D01*
X88288985Y-45342616D01*
X88339834Y-45391502D01*
X88400744Y-45431224D01*
X88469680Y-45460507D01*
X88544611Y-45478077D01*
X88625536Y-45483934D01*
X88667084Y-45483934D01*
X88747906Y-45478180D01*
X88822527Y-45460921D01*
X88890946Y-45432154D01*
X88951373Y-45392914D01*
X89002016Y-45344235D01*
X89042875Y-45286116D01*
X89072916Y-45220591D01*
X89091106Y-45149691D01*
X89097445Y-45073416D01*
X89097445Y-44793743D01*
X88194555Y-44793743D01*
X87917569Y-44793743D01*
X87917569Y-44631273D01*
X88194555Y-44631273D01*
X89097445Y-44631273D01*
X89097445Y-44445238D01*
X88503373Y-44083089D01*
X89097445Y-44083089D01*
X89097445Y-43897054D01*
X88194555Y-43897054D01*
X88194555Y-44083089D01*
X88789867Y-44445858D01*
X88194555Y-44445858D01*
X88194555Y-44631273D01*
X87917569Y-44631273D01*
X87917569Y-43387938D01*
X88182152Y-43387938D01*
X88190662Y-43487225D01*
X88216190Y-43570941D01*
X88258737Y-43639085D01*
X88317545Y-43691244D01*
X88391855Y-43727004D01*
X88481669Y-43746365D01*
X88481669Y-43565291D01*
X88414541Y-43545370D01*
X88368187Y-43510411D01*
X88341212Y-43459949D01*
X88332221Y-43393519D01*
X88350049Y-43309958D01*
X88403534Y-43249031D01*
X88458794Y-43221402D01*
X88529487Y-43204659D01*
X88615614Y-43198802D01*
X88673285Y-43198802D01*
X88760239Y-43204796D01*
X88831760Y-43222780D01*
X88887846Y-43252752D01*
X88942261Y-43319260D01*
X88960399Y-43410882D01*
X88949237Y-43500644D01*
X88915751Y-43560330D01*
X88760102Y-43560330D01*
X88760102Y-43391038D01*
X88623056Y-43391038D01*
X88623056Y-43746365D01*
X88983344Y-43746365D01*
X89036751Y-43685749D01*
X89076671Y-43604359D01*
X89101554Y-43507620D01*
X89109848Y-43400960D01*
X89104163Y-43326029D01*
X89087110Y-43257506D01*
X89058688Y-43195391D01*
X88995979Y-43117102D01*
X88910170Y-43058966D01*
X88841475Y-43032128D01*
X88765200Y-43015695D01*
X88681347Y-43009666D01*
X88619955Y-43009666D01*
X88533862Y-43014731D01*
X88455831Y-43029923D01*
X88385861Y-43055245D01*
X88298579Y-43110900D01*
X88234552Y-43186710D01*
X88205441Y-43247240D01*
X88187975Y-43314316D01*
X88182152Y-43387938D01*
X87917569Y-43387938D01*
X87917569Y-42745083D01*
X89374431Y-42745083D01*
X89374431Y-45748517D01*
X87917569Y-45748517D01*
G37*
G36*
X88947997Y-45069696D02*
G01*
X88930169Y-45165969D01*
X88876684Y-45236507D01*
X88822320Y-45268684D01*
X88754314Y-45288321D01*
X88672665Y-45295418D01*
X88624916Y-45295418D01*
X88540546Y-45289079D01*
X88470989Y-45270062D01*
X88416247Y-45238367D01*
X88362994Y-45168139D01*
X88345243Y-45071556D01*
X88345243Y-44979779D01*
X88947997Y-44979779D01*
X88947997Y-45069696D01*
G37*
%TO.C,kibuzzard-63CD529F*%
G36*
X92085589Y-41185415D02*
G01*
X92191138Y-41221330D01*
X92277825Y-41281189D01*
X92342205Y-41361632D01*
X92380833Y-41459300D01*
X92393709Y-41574194D01*
X92393709Y-42317560D01*
X92160390Y-42317560D01*
X92160390Y-41566443D01*
X92146777Y-41476235D01*
X92109037Y-41411801D01*
X92047170Y-41373141D01*
X91961177Y-41360254D01*
X91877559Y-41372947D01*
X91814287Y-41411026D01*
X91774464Y-41476816D01*
X91761190Y-41572644D01*
X91761190Y-42317560D01*
X91528646Y-42317560D01*
X91528646Y-41565668D01*
X91542857Y-41452410D01*
X91582389Y-41356550D01*
X91647243Y-41278088D01*
X91733801Y-41219952D01*
X91838446Y-41185071D01*
X91961177Y-41173443D01*
X92085589Y-41185415D01*
G37*
G36*
X95169509Y-42129199D02*
G01*
X95515224Y-42129199D01*
X95515224Y-42317560D01*
X94595900Y-42317560D01*
X94595900Y-42129199D01*
X94936965Y-42129199D01*
X94936965Y-41188946D01*
X95169509Y-41188946D01*
X95169509Y-42129199D01*
G37*
G36*
X90936951Y-40868466D02*
G01*
X91019633Y-40923243D01*
X91080611Y-41014538D01*
X91099215Y-41058722D01*
X91436403Y-42027655D01*
X91196108Y-42027655D01*
X91041079Y-41505981D01*
X90885274Y-42027655D01*
X90644204Y-42027655D01*
X90937984Y-41186621D01*
X90911629Y-41117633D01*
X90862407Y-41053296D01*
X90767452Y-41033917D01*
X90733345Y-41034692D01*
X90733345Y-40864935D01*
X90832564Y-40850207D01*
X90936951Y-40868466D01*
G37*
G36*
X93885091Y-41602099D02*
G01*
X94070351Y-41602099D01*
X94281966Y-41188946D01*
X94531563Y-41188946D01*
X94531563Y-41199798D01*
X94287392Y-41661011D01*
X94376049Y-41714593D01*
X94438933Y-41783871D01*
X94476431Y-41870591D01*
X94488930Y-41976495D01*
X94476872Y-42076834D01*
X94440699Y-42160808D01*
X94380410Y-42228418D01*
X94297900Y-42277941D01*
X94195064Y-42307655D01*
X94071901Y-42317560D01*
X93652547Y-42317560D01*
X93652547Y-42129199D01*
X93885091Y-42129199D01*
X94071901Y-42129199D01*
X94153582Y-42117766D01*
X94211040Y-42083465D01*
X94245050Y-42029205D01*
X94256386Y-41957892D01*
X94244371Y-41888032D01*
X94208327Y-41835031D01*
X94150385Y-41801603D01*
X94072677Y-41790460D01*
X93885091Y-41790460D01*
X93885091Y-42129199D01*
X93652547Y-42129199D01*
X93652547Y-41188946D01*
X93885091Y-41188946D01*
X93885091Y-41602099D01*
G37*
G36*
X88954384Y-42129199D02*
G01*
X89300100Y-42129199D01*
X89300100Y-42317560D01*
X88380776Y-42317560D01*
X88380776Y-42129199D01*
X88721840Y-42129199D01*
X88721840Y-41188946D01*
X88954384Y-41188946D01*
X88954384Y-42129199D01*
G37*
G36*
X89633025Y-42160980D02*
G01*
X89667519Y-42244696D01*
X89633413Y-42327637D01*
X89541945Y-42360193D01*
X89450090Y-42327637D01*
X89416372Y-42244696D01*
X89450866Y-42160980D01*
X89541945Y-42128424D01*
X89633025Y-42160980D01*
G37*
G36*
X93299855Y-41188946D02*
G01*
X93547127Y-41188946D01*
X93124672Y-42317560D01*
X92909182Y-42317560D01*
X92645735Y-41609851D01*
X92876625Y-41609851D01*
X93016927Y-42032306D01*
X93158779Y-41609851D01*
X92876625Y-41609851D01*
X92645735Y-41609851D01*
X92489052Y-41188946D01*
X92736324Y-41188946D01*
X92813839Y-41421490D01*
X93221566Y-41421490D01*
X93299855Y-41188946D01*
G37*
G36*
X90058193Y-41780383D02*
G01*
X90117298Y-41840845D01*
X90200045Y-41860998D01*
X90303139Y-41828830D01*
X90334145Y-41725348D01*
X90334145Y-41188946D01*
X90558162Y-41188946D01*
X90558162Y-41730774D01*
X90540722Y-41867200D01*
X90491500Y-41964868D01*
X90409334Y-42023585D01*
X90293062Y-42043158D01*
X90199097Y-42030669D01*
X90118740Y-41993204D01*
X90051992Y-41930762D01*
X90045015Y-42027655D01*
X89834176Y-42027655D01*
X89834176Y-41188946D01*
X90058193Y-41188946D01*
X90058193Y-41780383D01*
G37*
G36*
X89654342Y-42027655D02*
G01*
X89429549Y-42027655D01*
X89429549Y-41188946D01*
X89654342Y-41188946D01*
X89654342Y-42027655D01*
G37*
%TO.C,kibuzzard-63CD526B*%
G36*
X95486769Y-45735185D02*
G01*
X95486769Y-45108453D01*
X95751352Y-45108453D01*
X95760654Y-45205880D01*
X95788559Y-45289803D01*
X95835068Y-45360220D01*
X95898389Y-45414929D01*
X95976730Y-45451722D01*
X96070093Y-45470601D01*
X96070093Y-45284566D01*
X95994671Y-45268986D01*
X95943279Y-45235887D01*
X95913746Y-45183099D01*
X95903901Y-45108453D01*
X95920567Y-45027140D01*
X95970564Y-44969237D01*
X96023170Y-44943433D01*
X96092107Y-44927620D01*
X96177373Y-44921798D01*
X96245586Y-44921798D01*
X96334400Y-44926724D01*
X96405714Y-44941504D01*
X96459526Y-44966136D01*
X96510221Y-45023264D01*
X96527119Y-45105972D01*
X96517275Y-45181239D01*
X96487742Y-45234647D01*
X96437590Y-45268055D01*
X96365888Y-45283326D01*
X96365888Y-45469361D01*
X96456150Y-45452721D01*
X96532631Y-45416858D01*
X96595332Y-45361771D01*
X96641841Y-45290216D01*
X96669746Y-45204950D01*
X96679048Y-45105972D01*
X96671742Y-45023787D01*
X96649825Y-44950866D01*
X96613296Y-44887207D01*
X96562156Y-44832811D01*
X96498264Y-44789267D01*
X96423482Y-44758164D01*
X96337809Y-44739502D01*
X96241245Y-44733282D01*
X96186054Y-44733282D01*
X96102683Y-44738381D01*
X96026202Y-44753677D01*
X95956611Y-44779171D01*
X95868942Y-44834904D01*
X95804372Y-44910325D01*
X95774917Y-44970236D01*
X95757243Y-45036278D01*
X95751352Y-45108453D01*
X95486769Y-45108453D01*
X95486769Y-44277496D01*
X95751352Y-44277496D01*
X95760654Y-44374923D01*
X95788559Y-44458846D01*
X95835068Y-44529263D01*
X95898389Y-44583971D01*
X95976730Y-44620765D01*
X96070093Y-44639644D01*
X96070093Y-44453609D01*
X95994671Y-44438029D01*
X95943279Y-44404930D01*
X95913746Y-44352142D01*
X95903901Y-44277496D01*
X95920567Y-44196183D01*
X95970564Y-44138279D01*
X96023170Y-44112476D01*
X96092107Y-44096663D01*
X96177373Y-44090841D01*
X96245586Y-44090841D01*
X96334400Y-44095767D01*
X96405714Y-44110546D01*
X96459526Y-44135179D01*
X96510221Y-44192307D01*
X96527119Y-44275015D01*
X96517275Y-44350282D01*
X96487742Y-44403690D01*
X96437590Y-44437098D01*
X96365888Y-44452369D01*
X96365888Y-44638404D01*
X96456150Y-44621764D01*
X96532631Y-44585901D01*
X96595332Y-44530814D01*
X96641841Y-44459259D01*
X96669746Y-44373993D01*
X96679048Y-44275015D01*
X96671742Y-44192830D01*
X96649825Y-44119909D01*
X96613296Y-44056250D01*
X96562156Y-44001854D01*
X96498264Y-43958310D01*
X96423482Y-43927207D01*
X96337809Y-43908545D01*
X96241245Y-43902325D01*
X96186054Y-43902325D01*
X96102683Y-43907424D01*
X96026202Y-43922720D01*
X95956611Y-43948214D01*
X95868942Y-44003947D01*
X95804372Y-44079368D01*
X95774917Y-44139279D01*
X95757243Y-44205321D01*
X95751352Y-44277496D01*
X95486769Y-44277496D01*
X95486769Y-43844654D01*
X95763755Y-43844654D01*
X96666645Y-43530255D01*
X96666645Y-43336158D01*
X95763755Y-43022999D01*
X95763755Y-43229498D01*
X96442783Y-43432896D01*
X95763755Y-43637535D01*
X95763755Y-43844654D01*
X95486769Y-43844654D01*
X95486769Y-42758415D01*
X96943631Y-42758415D01*
X96943631Y-45735185D01*
X95486769Y-45735185D01*
G37*
%TO.C,kibuzzard-63CD5015*%
G36*
X97032303Y-40483739D02*
G01*
X93327774Y-40483739D01*
X93677442Y-39318177D01*
X94204827Y-39318177D01*
X94428844Y-39318177D01*
X94476515Y-39214307D01*
X94593950Y-39174000D01*
X94665167Y-39184561D01*
X94719136Y-39216245D01*
X94764482Y-39328254D01*
X94743812Y-39422133D01*
X94681800Y-39478460D01*
X94578447Y-39497236D01*
X94459850Y-39497236D01*
X94459850Y-39672419D01*
X94579222Y-39672419D01*
X94653443Y-39683077D01*
X94705571Y-39715052D01*
X94746654Y-39828223D01*
X94705959Y-39934418D01*
X94593950Y-39972400D01*
X94486205Y-39937131D01*
X94442797Y-39845276D01*
X94218779Y-39845276D01*
X94230697Y-39929089D01*
X94266451Y-40003794D01*
X94323618Y-40066290D01*
X94399776Y-40113477D01*
X94489790Y-40143126D01*
X94588524Y-40153010D01*
X94699284Y-40143492D01*
X94792818Y-40114941D01*
X94869127Y-40067356D01*
X94925541Y-40003062D01*
X94959389Y-39924384D01*
X94968698Y-39847602D01*
X95076091Y-39847602D01*
X95310185Y-39847602D01*
X95465990Y-39282520D01*
X95621794Y-39847602D01*
X95855889Y-39847602D01*
X95677293Y-39318177D01*
X95917900Y-39318177D01*
X96141918Y-39318177D01*
X96189589Y-39214307D01*
X96307024Y-39174000D01*
X96378240Y-39184561D01*
X96432210Y-39216245D01*
X96477556Y-39328254D01*
X96456886Y-39422133D01*
X96394874Y-39478460D01*
X96291521Y-39497236D01*
X96172924Y-39497236D01*
X96172924Y-39672419D01*
X96292296Y-39672419D01*
X96366516Y-39683077D01*
X96418645Y-39715052D01*
X96459728Y-39828223D01*
X96419033Y-39934418D01*
X96307024Y-39972400D01*
X96199278Y-39937131D01*
X96155870Y-39845276D01*
X95931853Y-39845276D01*
X95943771Y-39929089D01*
X95979524Y-40003794D01*
X96036692Y-40066290D01*
X96112850Y-40113477D01*
X96202864Y-40143126D01*
X96301598Y-40153010D01*
X96412358Y-40143492D01*
X96505892Y-40114941D01*
X96582201Y-40067356D01*
X96638614Y-40003062D01*
X96672462Y-39924384D01*
X96683745Y-39831324D01*
X96671924Y-39756910D01*
X96636461Y-39688697D01*
X96581813Y-39631142D01*
X96512438Y-39588703D01*
X96595669Y-39546070D01*
X96654677Y-39486384D01*
X96689849Y-39411970D01*
X96701573Y-39325153D01*
X96689386Y-39231533D01*
X96652825Y-39151176D01*
X96591890Y-39084083D01*
X96510887Y-39033698D01*
X96414123Y-39003467D01*
X96301598Y-38993390D01*
X96195790Y-39003295D01*
X96103677Y-39033009D01*
X96025258Y-39082532D01*
X95965615Y-39148334D01*
X95929829Y-39226882D01*
X95917900Y-39318177D01*
X95677293Y-39318177D01*
X95572960Y-39008893D01*
X95359020Y-39008893D01*
X95076091Y-39847602D01*
X94968698Y-39847602D01*
X94970671Y-39831324D01*
X94958850Y-39756910D01*
X94923387Y-39688697D01*
X94868740Y-39631142D01*
X94799364Y-39588703D01*
X94882595Y-39546070D01*
X94941603Y-39486384D01*
X94976776Y-39411970D01*
X94988500Y-39325153D01*
X94976313Y-39231533D01*
X94939752Y-39151176D01*
X94878816Y-39084083D01*
X94797814Y-39033698D01*
X94701050Y-39003467D01*
X94588524Y-38993390D01*
X94482717Y-39003295D01*
X94390603Y-39033009D01*
X94312184Y-39082532D01*
X94252541Y-39148334D01*
X94216755Y-39226882D01*
X94204827Y-39318177D01*
X93677442Y-39318177D01*
X93874097Y-38662661D01*
X97578626Y-38662661D01*
X97032303Y-40483739D01*
G37*
%TD*%
M02*
