%TF.GenerationSoftware,KiCad,Pcbnew,(6.0.10)*%
%TF.CreationDate,2023-02-15T12:42:23-05:00*%
%TF.ProjectId,Incredibly Cheap RS323,496e6372-6564-4696-926c-792043686561,rev?*%
%TF.SameCoordinates,Original*%
%TF.FileFunction,Soldermask,Top*%
%TF.FilePolarity,Negative*%
%FSLAX46Y46*%
G04 Gerber Fmt 4.6, Leading zero omitted, Abs format (unit mm)*
G04 Created by KiCad (PCBNEW (6.0.10)) date 2023-02-15 12:42:23*
%MOMM*%
%LPD*%
G01*
G04 APERTURE LIST*
G04 Aperture macros list*
%AMRoundRect*
0 Rectangle with rounded corners*
0 $1 Rounding radius*
0 $2 $3 $4 $5 $6 $7 $8 $9 X,Y pos of 4 corners*
0 Add a 4 corners polygon primitive as box body*
4,1,4,$2,$3,$4,$5,$6,$7,$8,$9,$2,$3,0*
0 Add four circle primitives for the rounded corners*
1,1,$1+$1,$2,$3*
1,1,$1+$1,$4,$5*
1,1,$1+$1,$6,$7*
1,1,$1+$1,$8,$9*
0 Add four rect primitives between the rounded corners*
20,1,$1+$1,$2,$3,$4,$5,0*
20,1,$1+$1,$4,$5,$6,$7,0*
20,1,$1+$1,$6,$7,$8,$9,0*
20,1,$1+$1,$8,$9,$2,$3,0*%
G04 Aperture macros list end*
%ADD10R,1.700000X1.700000*%
%ADD11O,1.700000X1.700000*%
%ADD12RoundRect,0.200000X-0.200000X-0.275000X0.200000X-0.275000X0.200000X0.275000X-0.200000X0.275000X0*%
%ADD13R,1.000000X0.800000*%
%ADD14C,0.900000*%
%ADD15R,0.700000X1.500000*%
%ADD16RoundRect,0.140000X-0.170000X0.140000X-0.170000X-0.140000X0.170000X-0.140000X0.170000X0.140000X0*%
%ADD17C,0.650000*%
%ADD18R,1.450000X0.600000*%
%ADD19R,1.450000X0.300000*%
%ADD20O,2.100000X1.000000*%
%ADD21O,1.600000X1.000000*%
%ADD22R,0.650000X0.400000*%
%ADD23RoundRect,0.140000X0.170000X-0.140000X0.170000X0.140000X-0.170000X0.140000X-0.170000X-0.140000X0*%
G04 APERTURE END LIST*
D10*
%TO.C,J3*%
X96256000Y-46736000D03*
D11*
X93716000Y-46736000D03*
X91176000Y-46736000D03*
X88636000Y-46736000D03*
%TD*%
D12*
%TO.C,R1*%
X87770200Y-43180000D03*
X89420200Y-43180000D03*
%TD*%
D13*
%TO.C,SW1*%
X87942400Y-38600400D03*
X95242400Y-40810400D03*
D14*
X90092400Y-39700400D03*
D13*
X87942400Y-40810400D03*
D14*
X93092400Y-39700400D03*
D13*
X95242400Y-38600400D03*
D15*
X93842400Y-41460400D03*
X90842400Y-41460400D03*
X89342400Y-41460400D03*
%TD*%
D16*
%TO.C,C4*%
X95808800Y-43462000D03*
X95808800Y-44422000D03*
%TD*%
%TO.C,C3*%
X91541600Y-43462000D03*
X91541600Y-44422000D03*
%TD*%
D17*
%TO.C,J1*%
X84388000Y-46070000D03*
X84388000Y-40290000D03*
D18*
X85833000Y-39930000D03*
X85833000Y-40730000D03*
D19*
X85833000Y-41930000D03*
X85833000Y-42930000D03*
X85833000Y-43430000D03*
X85833000Y-44430000D03*
D18*
X85833000Y-45630000D03*
X85833000Y-46430000D03*
X85833000Y-46430000D03*
X85833000Y-45630000D03*
D19*
X85833000Y-44930000D03*
X85833000Y-43930000D03*
X85833000Y-42430000D03*
X85833000Y-41430000D03*
D18*
X85833000Y-40730000D03*
X85833000Y-39930000D03*
D20*
X84918000Y-47500000D03*
D21*
X80738000Y-47500000D03*
D20*
X84918000Y-38860000D03*
D21*
X80738000Y-38860000D03*
%TD*%
D12*
%TO.C,R2*%
X87770200Y-44704000D03*
X89420200Y-44704000D03*
%TD*%
D22*
%TO.C,U2*%
X92776000Y-43292000D03*
X92776000Y-43942000D03*
X92776000Y-44592000D03*
X94676000Y-44592000D03*
X94676000Y-43292000D03*
%TD*%
D16*
%TO.C,C2*%
X90576400Y-43462000D03*
X90576400Y-44422000D03*
%TD*%
D23*
%TO.C,C1*%
X96774000Y-44422000D03*
X96774000Y-43462000D03*
%TD*%
M02*
