M48
; DRILL file {KiCad (6.0.10)} date Wed Feb 15 12:42:25 2023
; FORMAT={-:-/ absolute / inch / decimal}
; #@! TF.CreationDate,2023-02-15T12:42:25-05:00
; #@! TF.GenerationSoftware,Kicad,Pcbnew,(6.0.10)
; #@! TF.FileFunction,Plated,1,2,PTH
FMAT,2
INCH
; #@! TA.AperFunction,Plated,PTH,ViaDrill
T1C0.0098
; #@! TA.AperFunction,Plated,PTH,ComponentDrill
T2C0.0236
; #@! TA.AperFunction,Plated,PTH,ComponentDrill
T3C0.0394
%
G90
G05
T1
X3.255Y-1.58
X3.255Y-1.81
X3.3065Y-1.703
X3.3065Y-1.7364
X3.315Y-1.66
X3.41Y-1.536
X3.434Y-1.804
X3.468Y-1.652
X3.538Y-1.798
X3.598Y-1.632
X3.638Y-1.606
X3.734Y-1.876
X3.7553Y-1.7375
X3.798Y-1.66
T3
X3.4896Y-1.84
X3.5896Y-1.84
X3.6896Y-1.84
X3.7896Y-1.84
T2
G00X3.1905Y-1.5299
M15
G01X3.1669Y-1.5299
M16
G05
G00X3.1905Y-1.8701
M15
G01X3.1669Y-1.8701
M16
G05
G00X3.3649Y-1.5299
M15
G01X3.3216Y-1.5299
M16
G05
G00X3.3649Y-1.8701
M15
G01X3.3216Y-1.8701
M16
G05
T0
M30
