%TF.GenerationSoftware,KiCad,Pcbnew,(6.0.10)*%
%TF.CreationDate,2023-02-15T12:42:22-05:00*%
%TF.ProjectId,Incredibly Cheap RS323,496e6372-6564-4696-926c-792043686561,rev?*%
%TF.SameCoordinates,Original*%
%TF.FileFunction,Copper,L1,Top*%
%TF.FilePolarity,Positive*%
%FSLAX46Y46*%
G04 Gerber Fmt 4.6, Leading zero omitted, Abs format (unit mm)*
G04 Created by KiCad (PCBNEW (6.0.10)) date 2023-02-15 12:42:22*
%MOMM*%
%LPD*%
G01*
G04 APERTURE LIST*
G04 Aperture macros list*
%AMRoundRect*
0 Rectangle with rounded corners*
0 $1 Rounding radius*
0 $2 $3 $4 $5 $6 $7 $8 $9 X,Y pos of 4 corners*
0 Add a 4 corners polygon primitive as box body*
4,1,4,$2,$3,$4,$5,$6,$7,$8,$9,$2,$3,0*
0 Add four circle primitives for the rounded corners*
1,1,$1+$1,$2,$3*
1,1,$1+$1,$4,$5*
1,1,$1+$1,$6,$7*
1,1,$1+$1,$8,$9*
0 Add four rect primitives between the rounded corners*
20,1,$1+$1,$2,$3,$4,$5,0*
20,1,$1+$1,$4,$5,$6,$7,0*
20,1,$1+$1,$6,$7,$8,$9,0*
20,1,$1+$1,$8,$9,$2,$3,0*%
G04 Aperture macros list end*
%TA.AperFunction,ComponentPad*%
%ADD10R,1.700000X1.700000*%
%TD*%
%TA.AperFunction,ComponentPad*%
%ADD11O,1.700000X1.700000*%
%TD*%
%TA.AperFunction,SMDPad,CuDef*%
%ADD12RoundRect,0.200000X-0.200000X-0.275000X0.200000X-0.275000X0.200000X0.275000X-0.200000X0.275000X0*%
%TD*%
%TA.AperFunction,SMDPad,CuDef*%
%ADD13R,1.000000X0.800000*%
%TD*%
%TA.AperFunction,SMDPad,CuDef*%
%ADD14R,0.700000X1.500000*%
%TD*%
%TA.AperFunction,SMDPad,CuDef*%
%ADD15RoundRect,0.140000X-0.170000X0.140000X-0.170000X-0.140000X0.170000X-0.140000X0.170000X0.140000X0*%
%TD*%
%TA.AperFunction,SMDPad,CuDef*%
%ADD16R,1.450000X0.600000*%
%TD*%
%TA.AperFunction,SMDPad,CuDef*%
%ADD17R,1.450000X0.300000*%
%TD*%
%TA.AperFunction,ComponentPad*%
%ADD18O,2.100000X1.000000*%
%TD*%
%TA.AperFunction,ComponentPad*%
%ADD19O,1.600000X1.000000*%
%TD*%
%TA.AperFunction,SMDPad,CuDef*%
%ADD20R,0.650000X0.400000*%
%TD*%
%TA.AperFunction,SMDPad,CuDef*%
%ADD21RoundRect,0.140000X0.170000X-0.140000X0.170000X0.140000X-0.170000X0.140000X-0.170000X-0.140000X0*%
%TD*%
%TA.AperFunction,ViaPad*%
%ADD22C,0.600000*%
%TD*%
%TA.AperFunction,Conductor*%
%ADD23C,0.150000*%
%TD*%
%TA.AperFunction,Conductor*%
%ADD24C,0.250000*%
%TD*%
G04 APERTURE END LIST*
D10*
%TO.P,J3,1,Pin_1*%
%TO.N,Vout*%
X96256000Y-46736000D03*
D11*
%TO.P,J3,2,Pin_2*%
%TO.N,TX*%
X93716000Y-46736000D03*
%TO.P,J3,3,Pin_3*%
%TO.N,RX*%
X91176000Y-46736000D03*
%TO.P,J3,4,Pin_4*%
%TO.N,GND*%
X88636000Y-46736000D03*
%TD*%
D12*
%TO.P,R1,1*%
%TO.N,Net-(J1-PadA5)*%
X87770200Y-43180000D03*
%TO.P,R1,2*%
%TO.N,GND*%
X89420200Y-43180000D03*
%TD*%
D13*
%TO.P,SW1,*%
%TO.N,*%
X87942400Y-38600400D03*
X95242400Y-40810400D03*
X87942400Y-40810400D03*
X95242400Y-38600400D03*
D14*
%TO.P,SW1,1,A*%
%TO.N,+3V3*%
X93842400Y-41460400D03*
%TO.P,SW1,2,B*%
%TO.N,Vout*%
X90842400Y-41460400D03*
%TO.P,SW1,3,C*%
%TO.N,VBUS*%
X89342400Y-41460400D03*
%TD*%
D15*
%TO.P,C4,1*%
%TO.N,+3V3*%
X95808800Y-43462000D03*
%TO.P,C4,2*%
%TO.N,GND*%
X95808800Y-44422000D03*
%TD*%
%TO.P,C3,1*%
%TO.N,VBUS*%
X91541600Y-43462000D03*
%TO.P,C3,2*%
%TO.N,GND*%
X91541600Y-44422000D03*
%TD*%
D16*
%TO.P,J1,A1,GND*%
%TO.N,GND*%
X85833000Y-39930000D03*
%TO.P,J1,A4,VBUS*%
%TO.N,VBUS*%
X85833000Y-40730000D03*
D17*
%TO.P,J1,A5,CC1*%
%TO.N,Net-(J1-PadA5)*%
X85833000Y-41930000D03*
%TO.P,J1,A6,D+*%
%TO.N,D+*%
X85833000Y-42930000D03*
%TO.P,J1,A7,D-*%
%TO.N,D-*%
X85833000Y-43430000D03*
%TO.P,J1,A8,SBU1*%
%TO.N,unconnected-(J1-PadA8)*%
X85833000Y-44430000D03*
D16*
%TO.P,J1,A9,VBUS*%
%TO.N,VBUS*%
X85833000Y-45630000D03*
%TO.P,J1,A12,GND*%
%TO.N,GND*%
X85833000Y-46430000D03*
%TO.P,J1,B1,GND*%
X85833000Y-46430000D03*
%TO.P,J1,B4,VBUS*%
%TO.N,VBUS*%
X85833000Y-45630000D03*
D17*
%TO.P,J1,B5,CC2*%
%TO.N,Net-(J1-PadB5)*%
X85833000Y-44930000D03*
%TO.P,J1,B6,D+*%
%TO.N,D+*%
X85833000Y-43930000D03*
%TO.P,J1,B7,D-*%
%TO.N,D-*%
X85833000Y-42430000D03*
%TO.P,J1,B8,SBU2*%
%TO.N,unconnected-(J1-PadB8)*%
X85833000Y-41430000D03*
D16*
%TO.P,J1,B9,VBUS*%
%TO.N,VBUS*%
X85833000Y-40730000D03*
%TO.P,J1,B12,GND*%
%TO.N,GND*%
X85833000Y-39930000D03*
D18*
%TO.P,J1,S1,SHIELD*%
%TO.N,unconnected-(J1-PadS1)*%
X84918000Y-47500000D03*
D19*
X80738000Y-47500000D03*
D18*
X84918000Y-38860000D03*
D19*
X80738000Y-38860000D03*
%TD*%
D12*
%TO.P,R2,1*%
%TO.N,Net-(J1-PadB5)*%
X87770200Y-44704000D03*
%TO.P,R2,2*%
%TO.N,GND*%
X89420200Y-44704000D03*
%TD*%
D20*
%TO.P,U2,1,VIN*%
%TO.N,VBUS*%
X92776000Y-43292000D03*
%TO.P,U2,2,GND*%
%TO.N,GND*%
X92776000Y-43942000D03*
%TO.P,U2,3,EN*%
%TO.N,VBUS*%
X92776000Y-44592000D03*
%TO.P,U2,4,NC*%
%TO.N,unconnected-(U2-Pad4)*%
X94676000Y-44592000D03*
%TO.P,U2,5,VOUT*%
%TO.N,+3V3*%
X94676000Y-43292000D03*
%TD*%
D15*
%TO.P,C2,1*%
%TO.N,GND*%
X90576400Y-43462000D03*
%TO.P,C2,2*%
%TO.N,Net-(C2-Pad2)*%
X90576400Y-44422000D03*
%TD*%
D21*
%TO.P,C1,1*%
%TO.N,Vout*%
X96774000Y-44422000D03*
%TO.P,C1,2*%
%TO.N,GND*%
X96774000Y-43462000D03*
%TD*%
D22*
%TO.N,GND*%
X84201000Y-42164000D03*
X95383663Y-44133428D03*
X82677000Y-40132000D03*
X88087200Y-41960800D03*
X96469200Y-42164000D03*
X82677000Y-45974000D03*
X94843600Y-47650400D03*
X92405200Y-40792400D03*
X86614000Y-39014400D03*
X87223600Y-45821600D03*
%TO.N,D+*%
X83984819Y-44105000D03*
%TO.N,D-*%
X83984819Y-43255000D03*
%TO.N,Net-(C2-Pad2)*%
X89865200Y-45669200D03*
%TO.N,Vout*%
X91389200Y-41452800D03*
%TD*%
D23*
%TO.N,Net-(J1-PadA5)*%
X87770200Y-42913800D02*
X87770200Y-43180000D01*
X86786400Y-41930000D02*
X87770200Y-42913800D01*
X85833000Y-41930000D02*
X86786400Y-41930000D01*
%TO.N,Net-(J1-PadB5)*%
X85833000Y-44930000D02*
X87544200Y-44930000D01*
X87544200Y-44930000D02*
X87770200Y-44704000D01*
D24*
%TO.N,VBUS*%
X92776000Y-44592000D02*
X92151200Y-44592000D01*
X89966800Y-42519600D02*
X90220800Y-42773600D01*
X92201000Y-43292000D02*
X92776000Y-43292000D01*
X92151200Y-44592000D02*
X92151200Y-43341800D01*
X89342400Y-40625200D02*
X89342400Y-41460400D01*
X85833000Y-40730000D02*
X85000000Y-40730000D01*
X92151200Y-43341800D02*
X92201000Y-43292000D01*
X84328000Y-44958000D02*
X85000000Y-45630000D01*
X91541600Y-43462000D02*
X92031000Y-43462000D01*
X89966800Y-41656000D02*
X89966800Y-42519600D01*
X83566000Y-44958000D02*
X84328000Y-44958000D01*
X84328000Y-41402000D02*
X83566000Y-41402000D01*
X89771200Y-41460400D02*
X89966800Y-41656000D01*
X83159600Y-44551600D02*
X83566000Y-44958000D01*
X89342400Y-41460400D02*
X89771200Y-41460400D01*
X91541600Y-43434000D02*
X91541600Y-43462000D01*
X83566000Y-41402000D02*
X83159600Y-41808400D01*
X85000000Y-45630000D02*
X85833000Y-45630000D01*
X85000000Y-40730000D02*
X84328000Y-41402000D01*
X90881200Y-42773600D02*
X91541600Y-43434000D01*
X85833000Y-40730000D02*
X86574800Y-40730000D01*
X88646000Y-39928800D02*
X89342400Y-40625200D01*
X92031000Y-43462000D02*
X92151200Y-43341800D01*
X87376000Y-39928800D02*
X88646000Y-39928800D01*
X86574800Y-40730000D02*
X87376000Y-39928800D01*
X90220800Y-42773600D02*
X90881200Y-42773600D01*
X83159600Y-41808400D02*
X83159600Y-44551600D01*
%TO.N,+3V3*%
X93842400Y-42458400D02*
X94676000Y-43292000D01*
X93842400Y-41460400D02*
X93842400Y-42458400D01*
X94846000Y-43462000D02*
X94676000Y-43292000D01*
X95808800Y-43462000D02*
X94846000Y-43462000D01*
D23*
%TO.N,D+*%
X84645499Y-43830000D02*
X84259818Y-43830001D01*
X86783000Y-43044200D02*
X86783000Y-43823800D01*
X84745499Y-43930000D02*
X84645499Y-43830000D01*
X85833000Y-43930000D02*
X84745499Y-43930000D01*
X85833000Y-42930000D02*
X86668800Y-42930000D01*
X86676800Y-43930000D02*
X85833000Y-43930000D01*
X86783000Y-43823800D02*
X86676800Y-43930000D01*
X84259818Y-43830001D02*
X83984819Y-44105000D01*
X86668800Y-42930000D02*
X86783000Y-43044200D01*
%TO.N,D-*%
X85833000Y-43430000D02*
X84958000Y-43430000D01*
X84836000Y-43308000D02*
X84836000Y-42552000D01*
X84745499Y-43430000D02*
X84645499Y-43530000D01*
X84259818Y-43529999D02*
X83984819Y-43255000D01*
X84645499Y-43530000D02*
X84259818Y-43529999D01*
X84836000Y-42552000D02*
X84958000Y-42430000D01*
X85833000Y-43430000D02*
X84745499Y-43430000D01*
X84958000Y-43430000D02*
X84836000Y-43308000D01*
X84958000Y-42430000D02*
X85833000Y-42430000D01*
%TO.N,Net-(C2-Pad2)*%
X90576400Y-44958000D02*
X90576400Y-44422000D01*
X89865200Y-45669200D02*
X90576400Y-44958000D01*
D24*
%TO.N,Vout*%
X91381600Y-41460400D02*
X91389200Y-41452800D01*
X96774000Y-44422000D02*
X96774000Y-46218000D01*
X90842400Y-41460400D02*
X91381600Y-41460400D01*
X96774000Y-46218000D02*
X96256000Y-46736000D01*
%TD*%
%TA.AperFunction,Conductor*%
%TO.N,GND*%
G36*
X79880769Y-38317813D02*
G01*
X79906079Y-38361650D01*
X79897289Y-38411500D01*
X79888455Y-38423726D01*
X79858560Y-38457279D01*
X79779224Y-38607119D01*
X79778137Y-38611445D01*
X79778137Y-38611446D01*
X79777488Y-38614032D01*
X79737919Y-38771559D01*
X79737031Y-38941105D01*
X79776612Y-39105968D01*
X79854375Y-39256631D01*
X79857304Y-39259989D01*
X79857305Y-39259990D01*
X79892566Y-39300410D01*
X79965831Y-39384396D01*
X79969485Y-39386964D01*
X79969486Y-39386965D01*
X79976427Y-39391843D01*
X80104547Y-39481887D01*
X80262513Y-39543476D01*
X80391826Y-39560500D01*
X81080516Y-39560500D01*
X81082729Y-39560232D01*
X81082732Y-39560232D01*
X81201891Y-39545812D01*
X81206320Y-39545276D01*
X81307865Y-39506905D01*
X81360753Y-39486921D01*
X81360755Y-39486920D01*
X81364923Y-39485345D01*
X81425693Y-39443579D01*
X81500969Y-39391843D01*
X81500971Y-39391841D01*
X81504651Y-39389312D01*
X81546137Y-39342750D01*
X81614470Y-39266055D01*
X81614472Y-39266052D01*
X81617440Y-39262721D01*
X81679795Y-39144952D01*
X81694690Y-39116821D01*
X81694690Y-39116820D01*
X81696776Y-39112881D01*
X81697863Y-39108554D01*
X81736994Y-38952769D01*
X81736994Y-38952768D01*
X81738081Y-38948441D01*
X81738969Y-38778895D01*
X81699388Y-38614032D01*
X81621625Y-38463369D01*
X81616313Y-38457279D01*
X81599233Y-38437701D01*
X81586536Y-38423145D01*
X81568314Y-38375921D01*
X81584710Y-38328031D01*
X81628053Y-38301884D01*
X81642300Y-38300500D01*
X83763203Y-38300500D01*
X83810769Y-38317813D01*
X83836079Y-38361650D01*
X83827289Y-38411500D01*
X83818455Y-38423726D01*
X83788560Y-38457279D01*
X83709224Y-38607119D01*
X83708137Y-38611445D01*
X83708137Y-38611446D01*
X83707488Y-38614032D01*
X83667919Y-38771559D01*
X83667031Y-38941105D01*
X83706612Y-39105968D01*
X83784375Y-39256631D01*
X83787304Y-39259989D01*
X83787305Y-39259990D01*
X83822566Y-39300410D01*
X83895831Y-39384396D01*
X83899485Y-39386964D01*
X83899486Y-39386965D01*
X83906427Y-39391843D01*
X84034547Y-39481887D01*
X84192513Y-39543476D01*
X84321826Y-39560500D01*
X85510516Y-39560500D01*
X85512729Y-39560232D01*
X85512732Y-39560232D01*
X85631891Y-39545812D01*
X85636320Y-39545276D01*
X85737865Y-39506905D01*
X85790753Y-39486921D01*
X85790755Y-39486920D01*
X85794923Y-39485345D01*
X85855693Y-39443579D01*
X85930969Y-39391843D01*
X85930971Y-39391841D01*
X85934651Y-39389312D01*
X85976137Y-39342750D01*
X86044470Y-39266055D01*
X86044472Y-39266052D01*
X86047440Y-39262721D01*
X86109795Y-39144952D01*
X86124690Y-39116821D01*
X86124690Y-39116820D01*
X86126776Y-39112881D01*
X86127863Y-39108554D01*
X86166994Y-38952769D01*
X86166994Y-38952768D01*
X86168081Y-38948441D01*
X86168969Y-38778895D01*
X86129388Y-38614032D01*
X86051625Y-38463369D01*
X86046313Y-38457279D01*
X86029233Y-38437701D01*
X86016536Y-38423145D01*
X85998314Y-38375921D01*
X86014710Y-38328031D01*
X86058053Y-38301884D01*
X86072300Y-38300500D01*
X87167900Y-38300500D01*
X87215466Y-38317813D01*
X87240776Y-38361650D01*
X87241900Y-38374500D01*
X87241900Y-39020148D01*
X87253533Y-39078631D01*
X87257584Y-39084693D01*
X87257584Y-39084694D01*
X87276418Y-39112881D01*
X87297848Y-39144952D01*
X87303909Y-39149002D01*
X87336963Y-39171088D01*
X87364169Y-39189267D01*
X87408695Y-39198124D01*
X87419082Y-39200190D01*
X87419083Y-39200190D01*
X87422652Y-39200900D01*
X88462148Y-39200900D01*
X88465717Y-39200190D01*
X88465718Y-39200190D01*
X88476105Y-39198124D01*
X88520631Y-39189267D01*
X88547838Y-39171088D01*
X88580891Y-39149002D01*
X88586952Y-39144952D01*
X88608382Y-39112881D01*
X88627216Y-39084694D01*
X88627216Y-39084693D01*
X88631267Y-39078631D01*
X88642900Y-39020148D01*
X88642900Y-38374500D01*
X88660213Y-38326934D01*
X88704050Y-38301624D01*
X88716900Y-38300500D01*
X94467900Y-38300500D01*
X94515466Y-38317813D01*
X94540776Y-38361650D01*
X94541900Y-38374500D01*
X94541900Y-39020148D01*
X94553533Y-39078631D01*
X94557584Y-39084693D01*
X94557584Y-39084694D01*
X94576418Y-39112881D01*
X94597848Y-39144952D01*
X94603909Y-39149002D01*
X94636963Y-39171088D01*
X94664169Y-39189267D01*
X94708695Y-39198124D01*
X94719082Y-39200190D01*
X94719083Y-39200190D01*
X94722652Y-39200900D01*
X95762148Y-39200900D01*
X95765717Y-39200190D01*
X95765718Y-39200190D01*
X95776105Y-39198124D01*
X95820631Y-39189267D01*
X95847838Y-39171088D01*
X95880891Y-39149002D01*
X95886952Y-39144952D01*
X95908382Y-39112881D01*
X95927216Y-39084694D01*
X95927216Y-39084693D01*
X95931267Y-39078631D01*
X95942900Y-39020148D01*
X95942900Y-38374500D01*
X95960213Y-38326934D01*
X96004050Y-38301624D01*
X96016900Y-38300500D01*
X97250819Y-38300500D01*
X97267402Y-38302382D01*
X97273519Y-38303789D01*
X97273522Y-38303789D01*
X97281641Y-38305656D01*
X97289767Y-38303817D01*
X97297330Y-38303830D01*
X97308777Y-38304741D01*
X97365449Y-38313717D01*
X97387463Y-38320869D01*
X97452304Y-38353907D01*
X97471030Y-38367513D01*
X97522487Y-38418970D01*
X97536093Y-38437696D01*
X97569131Y-38502537D01*
X97576283Y-38524552D01*
X97585311Y-38581557D01*
X97586222Y-38593259D01*
X97586211Y-38599520D01*
X97584344Y-38607641D01*
X97586183Y-38615768D01*
X97586183Y-38615770D01*
X97587675Y-38622362D01*
X97589500Y-38638694D01*
X97589500Y-47720819D01*
X97587618Y-47737402D01*
X97586211Y-47743519D01*
X97586211Y-47743522D01*
X97584344Y-47751641D01*
X97586183Y-47759767D01*
X97586170Y-47767330D01*
X97585259Y-47778777D01*
X97576283Y-47835449D01*
X97569131Y-47857463D01*
X97536093Y-47922304D01*
X97522487Y-47941030D01*
X97471030Y-47992487D01*
X97452304Y-48006093D01*
X97387463Y-48039131D01*
X97365448Y-48046283D01*
X97308443Y-48055311D01*
X97296741Y-48056222D01*
X97290480Y-48056211D01*
X97282359Y-48054344D01*
X97274232Y-48056183D01*
X97274230Y-48056183D01*
X97267638Y-48057675D01*
X97251306Y-48059500D01*
X86072797Y-48059500D01*
X86025231Y-48042187D01*
X85999921Y-47998350D01*
X86008711Y-47948500D01*
X86017546Y-47936273D01*
X86044470Y-47906055D01*
X86044472Y-47906052D01*
X86047440Y-47902721D01*
X86126776Y-47752881D01*
X86128020Y-47747927D01*
X86166994Y-47592769D01*
X86166994Y-47592768D01*
X86168081Y-47588441D01*
X86168969Y-47418895D01*
X86129388Y-47254032D01*
X86051625Y-47103369D01*
X86048695Y-47100010D01*
X85943104Y-46978968D01*
X85943102Y-46978966D01*
X85940169Y-46975604D01*
X85933175Y-46970688D01*
X85805105Y-46880680D01*
X85801453Y-46878113D01*
X85643487Y-46816524D01*
X85514174Y-46799500D01*
X84325484Y-46799500D01*
X84323271Y-46799768D01*
X84323268Y-46799768D01*
X84204109Y-46814188D01*
X84199680Y-46814724D01*
X84098135Y-46853095D01*
X84045247Y-46873079D01*
X84045245Y-46873080D01*
X84041077Y-46874655D01*
X84037402Y-46877181D01*
X83905031Y-46968157D01*
X83905029Y-46968159D01*
X83901349Y-46970688D01*
X83788560Y-47097279D01*
X83709224Y-47247119D01*
X83708137Y-47251445D01*
X83708137Y-47251446D01*
X83684083Y-47347210D01*
X83667919Y-47411559D01*
X83667031Y-47581105D01*
X83706612Y-47745968D01*
X83784375Y-47896631D01*
X83787304Y-47899989D01*
X83787305Y-47899990D01*
X83792596Y-47906055D01*
X83815879Y-47932744D01*
X83819464Y-47936854D01*
X83837686Y-47984079D01*
X83821290Y-48031969D01*
X83777947Y-48058116D01*
X83763700Y-48059500D01*
X81642797Y-48059500D01*
X81595231Y-48042187D01*
X81569921Y-47998350D01*
X81578711Y-47948500D01*
X81587546Y-47936273D01*
X81614470Y-47906055D01*
X81614472Y-47906052D01*
X81617440Y-47902721D01*
X81696776Y-47752881D01*
X81698020Y-47747927D01*
X81736994Y-47592769D01*
X81736994Y-47592768D01*
X81738081Y-47588441D01*
X81738969Y-47418895D01*
X81699388Y-47254032D01*
X81621625Y-47103369D01*
X81618695Y-47100010D01*
X81513104Y-46978968D01*
X81513102Y-46978966D01*
X81510169Y-46975604D01*
X81503175Y-46970688D01*
X81375105Y-46880680D01*
X81371453Y-46878113D01*
X81213487Y-46816524D01*
X81084174Y-46799500D01*
X80395484Y-46799500D01*
X80393271Y-46799768D01*
X80393268Y-46799768D01*
X80274109Y-46814188D01*
X80269680Y-46814724D01*
X80168135Y-46853095D01*
X80115247Y-46873079D01*
X80115245Y-46873080D01*
X80111077Y-46874655D01*
X80107402Y-46877181D01*
X79975031Y-46968157D01*
X79975029Y-46968159D01*
X79971349Y-46970688D01*
X79858560Y-47097279D01*
X79779224Y-47247119D01*
X79778137Y-47251445D01*
X79778137Y-47251446D01*
X79754083Y-47347210D01*
X79737919Y-47411559D01*
X79737031Y-47581105D01*
X79776612Y-47745968D01*
X79854375Y-47896631D01*
X79857304Y-47899989D01*
X79857305Y-47899990D01*
X79862596Y-47906055D01*
X79885879Y-47932744D01*
X79889464Y-47936854D01*
X79907686Y-47984079D01*
X79891290Y-48031969D01*
X79847947Y-48058116D01*
X79833700Y-48059500D01*
X79787181Y-48059500D01*
X79770598Y-48057618D01*
X79764481Y-48056211D01*
X79764478Y-48056211D01*
X79756359Y-48054344D01*
X79748233Y-48056183D01*
X79740670Y-48056170D01*
X79729223Y-48055259D01*
X79672551Y-48046283D01*
X79650537Y-48039131D01*
X79585696Y-48006093D01*
X79566970Y-47992487D01*
X79515513Y-47941030D01*
X79501907Y-47922304D01*
X79468869Y-47857463D01*
X79461717Y-47835449D01*
X79458216Y-47813344D01*
X79452839Y-47779396D01*
X79452414Y-47759357D01*
X79452708Y-47756804D01*
X79453655Y-47752718D01*
X79453656Y-47752000D01*
X79450353Y-47737520D01*
X79448500Y-47721063D01*
X79448500Y-44580407D01*
X82830336Y-44580407D01*
X82839809Y-44615758D01*
X82840678Y-44619001D01*
X82842075Y-44625303D01*
X82842681Y-44628736D01*
X82847597Y-44656618D01*
X82849012Y-44664645D01*
X82852247Y-44670247D01*
X82853961Y-44674958D01*
X82856249Y-44680482D01*
X82858371Y-44685032D01*
X82860046Y-44691284D01*
X82863758Y-44696586D01*
X82863759Y-44696587D01*
X82882962Y-44724011D01*
X82886428Y-44729451D01*
X82906406Y-44764055D01*
X82911367Y-44768218D01*
X82911369Y-44768220D01*
X82937009Y-44789734D01*
X82941769Y-44794095D01*
X83323511Y-45175838D01*
X83327872Y-45180598D01*
X83349384Y-45206236D01*
X83349387Y-45206238D01*
X83353545Y-45211194D01*
X83359147Y-45214428D01*
X83359149Y-45214430D01*
X83388148Y-45231172D01*
X83393592Y-45234640D01*
X83421014Y-45253841D01*
X83421016Y-45253842D01*
X83426316Y-45257553D01*
X83432569Y-45259229D01*
X83437121Y-45261351D01*
X83442654Y-45263643D01*
X83447350Y-45265352D01*
X83452955Y-45268588D01*
X83459328Y-45269712D01*
X83459329Y-45269712D01*
X83476720Y-45272778D01*
X83492308Y-45275527D01*
X83498607Y-45276923D01*
X83537193Y-45287263D01*
X83543641Y-45286699D01*
X83543643Y-45286699D01*
X83576983Y-45283782D01*
X83583432Y-45283500D01*
X84162522Y-45283500D01*
X84210088Y-45300813D01*
X84214848Y-45305174D01*
X84291798Y-45382124D01*
X84313190Y-45428000D01*
X84300089Y-45476895D01*
X84258625Y-45505929D01*
X84249129Y-45507817D01*
X84246509Y-45508162D01*
X84242571Y-45508680D01*
X84242570Y-45508680D01*
X84237764Y-45509313D01*
X84097767Y-45567302D01*
X83977549Y-45659549D01*
X83885302Y-45779767D01*
X83827313Y-45919764D01*
X83826681Y-45924566D01*
X83826680Y-45924569D01*
X83815666Y-46008231D01*
X83807534Y-46070000D01*
X83808167Y-46074808D01*
X83822552Y-46184071D01*
X83827313Y-46220236D01*
X83885302Y-46360233D01*
X83977549Y-46480451D01*
X84097767Y-46572698D01*
X84237764Y-46630687D01*
X84242566Y-46631319D01*
X84242569Y-46631320D01*
X84325180Y-46642195D01*
X84350280Y-46645500D01*
X84425720Y-46645500D01*
X84450820Y-46642195D01*
X84533431Y-46631320D01*
X84533434Y-46631319D01*
X84538236Y-46630687D01*
X84678233Y-46572698D01*
X84798451Y-46480451D01*
X84890698Y-46360233D01*
X84948687Y-46220236D01*
X84953448Y-46184071D01*
X84976821Y-46139171D01*
X85023586Y-46119799D01*
X85041251Y-46121151D01*
X85048883Y-46122669D01*
X85084682Y-46129790D01*
X85084683Y-46129790D01*
X85088252Y-46130500D01*
X86577748Y-46130500D01*
X86581317Y-46129790D01*
X86581318Y-46129790D01*
X86602432Y-46125590D01*
X86636231Y-46118867D01*
X86702552Y-46074552D01*
X86721531Y-46046148D01*
X86742816Y-46014294D01*
X86742816Y-46014293D01*
X86746867Y-46008231D01*
X86758500Y-45949748D01*
X86758500Y-45663023D01*
X89359591Y-45663023D01*
X89360274Y-45668246D01*
X89360274Y-45668249D01*
X89364310Y-45699114D01*
X89378180Y-45805179D01*
X89435920Y-45936403D01*
X89459769Y-45964774D01*
X89524780Y-46042116D01*
X89524783Y-46042119D01*
X89528170Y-46046148D01*
X89547710Y-46059155D01*
X89643124Y-46122669D01*
X89643127Y-46122670D01*
X89647513Y-46125590D01*
X89784357Y-46168342D01*
X89789625Y-46168439D01*
X89789628Y-46168439D01*
X89849933Y-46169544D01*
X89927699Y-46170970D01*
X89932782Y-46169584D01*
X89932784Y-46169584D01*
X90060927Y-46134648D01*
X90060929Y-46134647D01*
X90066017Y-46133260D01*
X90188191Y-46058245D01*
X90188436Y-46057975D01*
X90234178Y-46041595D01*
X90281653Y-46059155D01*
X90306734Y-46103124D01*
X90298639Y-46151244D01*
X90296550Y-46155044D01*
X90205776Y-46320162D01*
X90204682Y-46323611D01*
X90154930Y-46480451D01*
X90143484Y-46516532D01*
X90143081Y-46520123D01*
X90143081Y-46520124D01*
X90141461Y-46534570D01*
X90120520Y-46721262D01*
X90120823Y-46724871D01*
X90120823Y-46724873D01*
X90133269Y-46873079D01*
X90137759Y-46926553D01*
X90194544Y-47124586D01*
X90196196Y-47127800D01*
X90196197Y-47127803D01*
X90217106Y-47168487D01*
X90288712Y-47307818D01*
X90416677Y-47469270D01*
X90419430Y-47471613D01*
X90419433Y-47471616D01*
X90450062Y-47497683D01*
X90573564Y-47602791D01*
X90620266Y-47628892D01*
X90750239Y-47701532D01*
X90750243Y-47701534D01*
X90753398Y-47703297D01*
X90756834Y-47704414D01*
X90756840Y-47704416D01*
X90858362Y-47737402D01*
X90949329Y-47766959D01*
X91013176Y-47774572D01*
X91150294Y-47790922D01*
X91150297Y-47790922D01*
X91153894Y-47791351D01*
X91226166Y-47785790D01*
X91355689Y-47775824D01*
X91355691Y-47775824D01*
X91359300Y-47775546D01*
X91480788Y-47741626D01*
X91554244Y-47721117D01*
X91554245Y-47721117D01*
X91557725Y-47720145D01*
X91588863Y-47704416D01*
X91738376Y-47628892D01*
X91738379Y-47628890D01*
X91741610Y-47627258D01*
X91903951Y-47500424D01*
X91933292Y-47466432D01*
X92036201Y-47347210D01*
X92036203Y-47347208D01*
X92038564Y-47344472D01*
X92040347Y-47341333D01*
X92040350Y-47341329D01*
X92093868Y-47247119D01*
X92140323Y-47165344D01*
X92152812Y-47127803D01*
X92204208Y-46973299D01*
X92205351Y-46969863D01*
X92210823Y-46926553D01*
X92230913Y-46767519D01*
X92230913Y-46767513D01*
X92231171Y-46765474D01*
X92231583Y-46736000D01*
X92230138Y-46721262D01*
X92660520Y-46721262D01*
X92660823Y-46724871D01*
X92660823Y-46724873D01*
X92673269Y-46873079D01*
X92677759Y-46926553D01*
X92734544Y-47124586D01*
X92736196Y-47127800D01*
X92736197Y-47127803D01*
X92757106Y-47168487D01*
X92828712Y-47307818D01*
X92956677Y-47469270D01*
X92959430Y-47471613D01*
X92959433Y-47471616D01*
X92990062Y-47497683D01*
X93113564Y-47602791D01*
X93160266Y-47628892D01*
X93290239Y-47701532D01*
X93290243Y-47701534D01*
X93293398Y-47703297D01*
X93296834Y-47704414D01*
X93296840Y-47704416D01*
X93398362Y-47737402D01*
X93489329Y-47766959D01*
X93553176Y-47774572D01*
X93690294Y-47790922D01*
X93690297Y-47790922D01*
X93693894Y-47791351D01*
X93766166Y-47785790D01*
X93895689Y-47775824D01*
X93895691Y-47775824D01*
X93899300Y-47775546D01*
X94020788Y-47741626D01*
X94094244Y-47721117D01*
X94094245Y-47721117D01*
X94097725Y-47720145D01*
X94128863Y-47704416D01*
X94278376Y-47628892D01*
X94278379Y-47628890D01*
X94281610Y-47627258D01*
X94309142Y-47605748D01*
X95205500Y-47605748D01*
X95217133Y-47664231D01*
X95221184Y-47670293D01*
X95221184Y-47670294D01*
X95255144Y-47721117D01*
X95261448Y-47730552D01*
X95267509Y-47734602D01*
X95314803Y-47766203D01*
X95327769Y-47774867D01*
X95372295Y-47783724D01*
X95382682Y-47785790D01*
X95382683Y-47785790D01*
X95386252Y-47786500D01*
X97125748Y-47786500D01*
X97129317Y-47785790D01*
X97129318Y-47785790D01*
X97139705Y-47783724D01*
X97184231Y-47774867D01*
X97197198Y-47766203D01*
X97244491Y-47734602D01*
X97250552Y-47730552D01*
X97256856Y-47721117D01*
X97290816Y-47670294D01*
X97290816Y-47670293D01*
X97294867Y-47664231D01*
X97306500Y-47605748D01*
X97306500Y-45866252D01*
X97294867Y-45807769D01*
X97276157Y-45779767D01*
X97254602Y-45747509D01*
X97250552Y-45741448D01*
X97244491Y-45737398D01*
X97190294Y-45701184D01*
X97190293Y-45701184D01*
X97184231Y-45697133D01*
X97177081Y-45695711D01*
X97177079Y-45695710D01*
X97159064Y-45692127D01*
X97115789Y-45665868D01*
X97099500Y-45619549D01*
X97099500Y-44912332D01*
X97116813Y-44864766D01*
X97132099Y-44853032D01*
X97131147Y-44851672D01*
X97136448Y-44847960D01*
X97142316Y-44845224D01*
X97227224Y-44760316D01*
X97277972Y-44651487D01*
X97284500Y-44601901D01*
X97284499Y-44242100D01*
X97284182Y-44239690D01*
X97278711Y-44198125D01*
X97278710Y-44198123D01*
X97277972Y-44192513D01*
X97275580Y-44187382D01*
X97255287Y-44143866D01*
X97227224Y-44083684D01*
X97142316Y-43998776D01*
X97033487Y-43948028D01*
X96983901Y-43941500D01*
X96774087Y-43941500D01*
X96564100Y-43941501D01*
X96561693Y-43941818D01*
X96561690Y-43941818D01*
X96520125Y-43947289D01*
X96520123Y-43947290D01*
X96514513Y-43948028D01*
X96509386Y-43950419D01*
X96509385Y-43950419D01*
X96494923Y-43957163D01*
X96405684Y-43998776D01*
X96320776Y-44083684D01*
X96270028Y-44192513D01*
X96263500Y-44242099D01*
X96263501Y-44601900D01*
X96263818Y-44604307D01*
X96263818Y-44604310D01*
X96268579Y-44640476D01*
X96270028Y-44651487D01*
X96272419Y-44656614D01*
X96272419Y-44656615D01*
X96273173Y-44658231D01*
X96320776Y-44760316D01*
X96405684Y-44845224D01*
X96411552Y-44847960D01*
X96416853Y-44851672D01*
X96414931Y-44854417D01*
X96441576Y-44881078D01*
X96448500Y-44912332D01*
X96448500Y-45611500D01*
X96431187Y-45659066D01*
X96387350Y-45684376D01*
X96374500Y-45685500D01*
X95386252Y-45685500D01*
X95382683Y-45686210D01*
X95382682Y-45686210D01*
X95372295Y-45688276D01*
X95327769Y-45697133D01*
X95321707Y-45701184D01*
X95321706Y-45701184D01*
X95267509Y-45737398D01*
X95261448Y-45741448D01*
X95257398Y-45747509D01*
X95235844Y-45779767D01*
X95217133Y-45807769D01*
X95205500Y-45866252D01*
X95205500Y-47605748D01*
X94309142Y-47605748D01*
X94443951Y-47500424D01*
X94473292Y-47466432D01*
X94576201Y-47347210D01*
X94576203Y-47347208D01*
X94578564Y-47344472D01*
X94580347Y-47341333D01*
X94580350Y-47341329D01*
X94633868Y-47247119D01*
X94680323Y-47165344D01*
X94692812Y-47127803D01*
X94744208Y-46973299D01*
X94745351Y-46969863D01*
X94750823Y-46926553D01*
X94770913Y-46767519D01*
X94770913Y-46767513D01*
X94771171Y-46765474D01*
X94771583Y-46736000D01*
X94762679Y-46645183D01*
X94751833Y-46534570D01*
X94751480Y-46530970D01*
X94691935Y-46333749D01*
X94604039Y-46168439D01*
X94596917Y-46155044D01*
X94596916Y-46155042D01*
X94595218Y-46151849D01*
X94465011Y-45992200D01*
X94306275Y-45860882D01*
X94295384Y-45854993D01*
X94128238Y-45764618D01*
X94125055Y-45762897D01*
X94121605Y-45761829D01*
X94121600Y-45761827D01*
X93996996Y-45723256D01*
X93928254Y-45701977D01*
X93723369Y-45680443D01*
X93719765Y-45680771D01*
X93719764Y-45680771D01*
X93680151Y-45684376D01*
X93518203Y-45699114D01*
X93469247Y-45713522D01*
X93324043Y-45756258D01*
X93324039Y-45756260D01*
X93320572Y-45757280D01*
X93238949Y-45799952D01*
X93141209Y-45851049D01*
X93141206Y-45851051D01*
X93138002Y-45852726D01*
X93135184Y-45854992D01*
X93135182Y-45854993D01*
X92980266Y-45979548D01*
X92980263Y-45979551D01*
X92977447Y-45981815D01*
X92975121Y-45984587D01*
X92975119Y-45984589D01*
X92847351Y-46136856D01*
X92847348Y-46136860D01*
X92845024Y-46139630D01*
X92745776Y-46320162D01*
X92744682Y-46323611D01*
X92694930Y-46480451D01*
X92683484Y-46516532D01*
X92683081Y-46520123D01*
X92683081Y-46520124D01*
X92681461Y-46534570D01*
X92660520Y-46721262D01*
X92230138Y-46721262D01*
X92222679Y-46645183D01*
X92211833Y-46534570D01*
X92211480Y-46530970D01*
X92151935Y-46333749D01*
X92064039Y-46168439D01*
X92056917Y-46155044D01*
X92056916Y-46155042D01*
X92055218Y-46151849D01*
X91925011Y-45992200D01*
X91766275Y-45860882D01*
X91755384Y-45854993D01*
X91588238Y-45764618D01*
X91585055Y-45762897D01*
X91581605Y-45761829D01*
X91581600Y-45761827D01*
X91456996Y-45723256D01*
X91388254Y-45701977D01*
X91183369Y-45680443D01*
X91179765Y-45680771D01*
X91179764Y-45680771D01*
X91140151Y-45684376D01*
X90978203Y-45699114D01*
X90929247Y-45713522D01*
X90784043Y-45756258D01*
X90784039Y-45756260D01*
X90780572Y-45757280D01*
X90698949Y-45799952D01*
X90601209Y-45851049D01*
X90601206Y-45851051D01*
X90598002Y-45852726D01*
X90595184Y-45854992D01*
X90595182Y-45854993D01*
X90440266Y-45979548D01*
X90440263Y-45979551D01*
X90437447Y-45981815D01*
X90424303Y-45997480D01*
X90380467Y-46022790D01*
X90330617Y-46014001D01*
X90298079Y-45975225D01*
X90298078Y-45924606D01*
X90301016Y-45917659D01*
X90346910Y-45822933D01*
X90370696Y-45681554D01*
X90370847Y-45669200D01*
X90361559Y-45604345D01*
X90371954Y-45554807D01*
X90382486Y-45541530D01*
X90746871Y-45177145D01*
X90758082Y-45167944D01*
X90775024Y-45156624D01*
X90793734Y-45128624D01*
X90814407Y-45097684D01*
X90835915Y-45065495D01*
X90846851Y-45010519D01*
X90851900Y-44985133D01*
X90851900Y-44985132D01*
X90855875Y-44965149D01*
X90857297Y-44958000D01*
X90855518Y-44949057D01*
X90855875Y-44946740D01*
X90855875Y-44943564D01*
X90856364Y-44943564D01*
X90863220Y-44899029D01*
X90896823Y-44867557D01*
X90920723Y-44856412D01*
X90944716Y-44845224D01*
X91029624Y-44760316D01*
X91080372Y-44651487D01*
X91086900Y-44601901D01*
X91086899Y-44242100D01*
X91086582Y-44239690D01*
X91081111Y-44198125D01*
X91081110Y-44198123D01*
X91080372Y-44192513D01*
X91077980Y-44187382D01*
X91057687Y-44143866D01*
X91029624Y-44083684D01*
X90944716Y-43998776D01*
X90835887Y-43948028D01*
X90786301Y-43941500D01*
X90576487Y-43941500D01*
X90366500Y-43941501D01*
X90364093Y-43941818D01*
X90364090Y-43941818D01*
X90322525Y-43947289D01*
X90322523Y-43947290D01*
X90316913Y-43948028D01*
X90311786Y-43950419D01*
X90311785Y-43950419D01*
X90297323Y-43957163D01*
X90208084Y-43998776D01*
X90123176Y-44083684D01*
X90072428Y-44192513D01*
X90065900Y-44242099D01*
X90065901Y-44601900D01*
X90066218Y-44604307D01*
X90066218Y-44604310D01*
X90070979Y-44640476D01*
X90072428Y-44651487D01*
X90074819Y-44656614D01*
X90074819Y-44656615D01*
X90075573Y-44658231D01*
X90123176Y-44760316D01*
X90201496Y-44838636D01*
X90222888Y-44884512D01*
X90209787Y-44933407D01*
X90201496Y-44943288D01*
X89996748Y-45148036D01*
X89950872Y-45169428D01*
X89939939Y-45169095D01*
X89939939Y-45169107D01*
X89801846Y-45168263D01*
X89801845Y-45168263D01*
X89796576Y-45168231D01*
X89658729Y-45207628D01*
X89537480Y-45284130D01*
X89484166Y-45344497D01*
X89453253Y-45379500D01*
X89442577Y-45391588D01*
X89381647Y-45521363D01*
X89359591Y-45663023D01*
X86758500Y-45663023D01*
X86758500Y-45310252D01*
X86757791Y-45306686D01*
X86757790Y-45306679D01*
X86755255Y-45293936D01*
X86762956Y-45243906D01*
X86801014Y-45210531D01*
X86827833Y-45205500D01*
X87199656Y-45205500D01*
X87247222Y-45222813D01*
X87251982Y-45227174D01*
X87331858Y-45307050D01*
X87337048Y-45309694D01*
X87337050Y-45309696D01*
X87439702Y-45362000D01*
X87439705Y-45362001D01*
X87444896Y-45364646D01*
X87450648Y-45365557D01*
X87450651Y-45365558D01*
X87535802Y-45379044D01*
X87538681Y-45379500D01*
X87770200Y-45379500D01*
X88001718Y-45379499D01*
X88004590Y-45379044D01*
X88004592Y-45379044D01*
X88036290Y-45374024D01*
X88095504Y-45364646D01*
X88152023Y-45335848D01*
X88203350Y-45309696D01*
X88203352Y-45309694D01*
X88208542Y-45307050D01*
X88298250Y-45217342D01*
X88300894Y-45212152D01*
X88300896Y-45212150D01*
X88353200Y-45109498D01*
X88353201Y-45109495D01*
X88355846Y-45104304D01*
X88356757Y-45098552D01*
X88356758Y-45098549D01*
X88370245Y-45013392D01*
X88370700Y-45010519D01*
X88370699Y-44397482D01*
X88355846Y-44303696D01*
X88325698Y-44244527D01*
X88300896Y-44195850D01*
X88300894Y-44195848D01*
X88298250Y-44190658D01*
X88208542Y-44100950D01*
X88203352Y-44098306D01*
X88203350Y-44098304D01*
X88100698Y-44046000D01*
X88100695Y-44045999D01*
X88095504Y-44043354D01*
X88089752Y-44042443D01*
X88089749Y-44042442D01*
X88004592Y-44028955D01*
X88001719Y-44028500D01*
X87998810Y-44028500D01*
X87770201Y-44028501D01*
X87538682Y-44028501D01*
X87535810Y-44028956D01*
X87535808Y-44028956D01*
X87505589Y-44033742D01*
X87444896Y-44043354D01*
X87410278Y-44060993D01*
X87337050Y-44098304D01*
X87337048Y-44098306D01*
X87331858Y-44100950D01*
X87242150Y-44190658D01*
X87239506Y-44195848D01*
X87239504Y-44195850D01*
X87187200Y-44298502D01*
X87184554Y-44303696D01*
X87183643Y-44309448D01*
X87183642Y-44309451D01*
X87173696Y-44372252D01*
X87169700Y-44397481D01*
X87169700Y-44580500D01*
X87152387Y-44628066D01*
X87108550Y-44653376D01*
X87095700Y-44654500D01*
X86832500Y-44654500D01*
X86784934Y-44637187D01*
X86759624Y-44593350D01*
X86758500Y-44580500D01*
X86758500Y-44260252D01*
X86757790Y-44256682D01*
X86757567Y-44254419D01*
X86770134Y-44205384D01*
X86790096Y-44185639D01*
X86826265Y-44161471D01*
X86852422Y-44143994D01*
X86852423Y-44143993D01*
X86875424Y-44128624D01*
X86886744Y-44111682D01*
X86895945Y-44100471D01*
X86953471Y-44042945D01*
X86964682Y-44033744D01*
X86981624Y-44022424D01*
X86997426Y-43998776D01*
X87042515Y-43931295D01*
X87043936Y-43924152D01*
X87043937Y-43924149D01*
X87051679Y-43885224D01*
X87058500Y-43850933D01*
X87058500Y-43850929D01*
X87062474Y-43830949D01*
X87063896Y-43823800D01*
X87060135Y-43804893D01*
X87059922Y-43803820D01*
X87058500Y-43789384D01*
X87058500Y-43641140D01*
X87075813Y-43593574D01*
X87119650Y-43568264D01*
X87169500Y-43577054D01*
X87198434Y-43607545D01*
X87239504Y-43688150D01*
X87239506Y-43688152D01*
X87242150Y-43693342D01*
X87331858Y-43783050D01*
X87337048Y-43785694D01*
X87337050Y-43785696D01*
X87439702Y-43838000D01*
X87439705Y-43838001D01*
X87444896Y-43840646D01*
X87450648Y-43841557D01*
X87450651Y-43841558D01*
X87535802Y-43855044D01*
X87538681Y-43855500D01*
X87770200Y-43855500D01*
X88001718Y-43855499D01*
X88004590Y-43855044D01*
X88004592Y-43855044D01*
X88036290Y-43850024D01*
X88095504Y-43840646D01*
X88174656Y-43800316D01*
X88203350Y-43785696D01*
X88203352Y-43785694D01*
X88208542Y-43783050D01*
X88298250Y-43693342D01*
X88300894Y-43688152D01*
X88300896Y-43688150D01*
X88353200Y-43585498D01*
X88353201Y-43585495D01*
X88355846Y-43580304D01*
X88356757Y-43574552D01*
X88356758Y-43574549D01*
X88370245Y-43489392D01*
X88370700Y-43486519D01*
X88370699Y-42873482D01*
X88370137Y-42869930D01*
X88363845Y-42830207D01*
X88355846Y-42779696D01*
X88314533Y-42698615D01*
X88300896Y-42671850D01*
X88300894Y-42671848D01*
X88298250Y-42666658D01*
X88208542Y-42576950D01*
X88203352Y-42574306D01*
X88203350Y-42574304D01*
X88100698Y-42522000D01*
X88100695Y-42521999D01*
X88095504Y-42519354D01*
X88089752Y-42518443D01*
X88089749Y-42518442D01*
X88004592Y-42504955D01*
X88001719Y-42504500D01*
X87979945Y-42504500D01*
X87781169Y-42504501D01*
X87733603Y-42487189D01*
X87728843Y-42482827D01*
X87005545Y-41759529D01*
X86996342Y-41748315D01*
X86989367Y-41737875D01*
X86985024Y-41731376D01*
X86967287Y-41719524D01*
X86962023Y-41716007D01*
X86962022Y-41716006D01*
X86902545Y-41676265D01*
X86893895Y-41670485D01*
X86818063Y-41655401D01*
X86774789Y-41629141D01*
X86758500Y-41582823D01*
X86758500Y-41260252D01*
X86746867Y-41201769D01*
X86742816Y-41195706D01*
X86740028Y-41188976D01*
X86741220Y-41188482D01*
X86731056Y-41146942D01*
X86740429Y-41121190D01*
X86740028Y-41121024D01*
X86742816Y-41114294D01*
X86746867Y-41108231D01*
X86758500Y-41049748D01*
X86758500Y-41040362D01*
X86775813Y-40992796D01*
X86782901Y-40985708D01*
X86787255Y-40983194D01*
X86791414Y-40978237D01*
X86791417Y-40978235D01*
X86812940Y-40952585D01*
X86817301Y-40947825D01*
X87115574Y-40649552D01*
X87161450Y-40628160D01*
X87210345Y-40641261D01*
X87239379Y-40682725D01*
X87241900Y-40701878D01*
X87241900Y-41230148D01*
X87253533Y-41288631D01*
X87257584Y-41294693D01*
X87257584Y-41294694D01*
X87268401Y-41310882D01*
X87297848Y-41354952D01*
X87303909Y-41359002D01*
X87349832Y-41389687D01*
X87364169Y-41399267D01*
X87399059Y-41406207D01*
X87419082Y-41410190D01*
X87419083Y-41410190D01*
X87422652Y-41410900D01*
X88462148Y-41410900D01*
X88465717Y-41410190D01*
X88465718Y-41410190D01*
X88485741Y-41406207D01*
X88520631Y-41399267D01*
X88534969Y-41389687D01*
X88580891Y-41359002D01*
X88586952Y-41354952D01*
X88616399Y-41310882D01*
X88627216Y-41294694D01*
X88627216Y-41294693D01*
X88631267Y-41288631D01*
X88642900Y-41230148D01*
X88642900Y-40564678D01*
X88660213Y-40517112D01*
X88704050Y-40491802D01*
X88753900Y-40500592D01*
X88769226Y-40512352D01*
X88794841Y-40537967D01*
X88816233Y-40583843D01*
X88807435Y-40618160D01*
X88810372Y-40619376D01*
X88807585Y-40626106D01*
X88803533Y-40632169D01*
X88791900Y-40690652D01*
X88791900Y-42230148D01*
X88803533Y-42288631D01*
X88807584Y-42294693D01*
X88807584Y-42294694D01*
X88839232Y-42342058D01*
X88847848Y-42354952D01*
X88914169Y-42399267D01*
X88958695Y-42408124D01*
X88969082Y-42410190D01*
X88969083Y-42410190D01*
X88972652Y-42410900D01*
X89567300Y-42410900D01*
X89614866Y-42428213D01*
X89640176Y-42472050D01*
X89641300Y-42484900D01*
X89641300Y-42502159D01*
X89641018Y-42508609D01*
X89639241Y-42528925D01*
X89637536Y-42548407D01*
X89643854Y-42571983D01*
X89647878Y-42587001D01*
X89649275Y-42593303D01*
X89656212Y-42632645D01*
X89659447Y-42638247D01*
X89661161Y-42642958D01*
X89663449Y-42648482D01*
X89665571Y-42653032D01*
X89667246Y-42659284D01*
X89670958Y-42664586D01*
X89670959Y-42664587D01*
X89690162Y-42692011D01*
X89693628Y-42697451D01*
X89713606Y-42732055D01*
X89718567Y-42736218D01*
X89718569Y-42736220D01*
X89744209Y-42757734D01*
X89748969Y-42762095D01*
X89978311Y-42991438D01*
X89982672Y-42996198D01*
X90004184Y-43021836D01*
X90004187Y-43021838D01*
X90008345Y-43026794D01*
X90013947Y-43030028D01*
X90013949Y-43030030D01*
X90042944Y-43046770D01*
X90048388Y-43050238D01*
X90081116Y-43073154D01*
X90087370Y-43074830D01*
X90091887Y-43076936D01*
X90097462Y-43079246D01*
X90102150Y-43080952D01*
X90107755Y-43084188D01*
X90114127Y-43085312D01*
X90114128Y-43085312D01*
X90147104Y-43091127D01*
X90153404Y-43092524D01*
X90177654Y-43099021D01*
X90191993Y-43102863D01*
X90231782Y-43099382D01*
X90238232Y-43099100D01*
X90715722Y-43099100D01*
X90763288Y-43116413D01*
X90768048Y-43120774D01*
X91009426Y-43362152D01*
X91030818Y-43408028D01*
X91031100Y-43414478D01*
X91031101Y-43563080D01*
X91031101Y-43641900D01*
X91031418Y-43644307D01*
X91031418Y-43644310D01*
X91034860Y-43670455D01*
X91037628Y-43691487D01*
X91040019Y-43696614D01*
X91040019Y-43696615D01*
X91050891Y-43719930D01*
X91088376Y-43800316D01*
X91173284Y-43885224D01*
X91282113Y-43935972D01*
X91331699Y-43942500D01*
X91334127Y-43942500D01*
X91751500Y-43942499D01*
X91751500Y-43943985D01*
X91795489Y-43956833D01*
X91823589Y-43998936D01*
X91825700Y-44016486D01*
X91825700Y-44649394D01*
X91828980Y-44658406D01*
X91833376Y-44670483D01*
X91836715Y-44682944D01*
X91840612Y-44705045D01*
X91843848Y-44710650D01*
X91851835Y-44724484D01*
X91857285Y-44736173D01*
X91864960Y-44757260D01*
X91869123Y-44762222D01*
X91869124Y-44762223D01*
X91879386Y-44774453D01*
X91886783Y-44785017D01*
X91889507Y-44789734D01*
X91898006Y-44804455D01*
X91915204Y-44818886D01*
X91924315Y-44827997D01*
X91938745Y-44845194D01*
X91954720Y-44854417D01*
X91958176Y-44856412D01*
X91968742Y-44863810D01*
X91970387Y-44865190D01*
X91985939Y-44878240D01*
X92003172Y-44884512D01*
X92007029Y-44885916D01*
X92018718Y-44891367D01*
X92032546Y-44899350D01*
X92032548Y-44899351D01*
X92038155Y-44902588D01*
X92060260Y-44906486D01*
X92072710Y-44909822D01*
X92093806Y-44917500D01*
X92258755Y-44917500D01*
X92304953Y-44934315D01*
X92306448Y-44936552D01*
X92312509Y-44940602D01*
X92349246Y-44965149D01*
X92372769Y-44980867D01*
X92417295Y-44989724D01*
X92427682Y-44991790D01*
X92427683Y-44991790D01*
X92431252Y-44992500D01*
X93120748Y-44992500D01*
X93124317Y-44991790D01*
X93124318Y-44991790D01*
X93134705Y-44989724D01*
X93179231Y-44980867D01*
X93202755Y-44965149D01*
X93239491Y-44940602D01*
X93245552Y-44936552D01*
X93258282Y-44917500D01*
X93285816Y-44876294D01*
X93285816Y-44876293D01*
X93289867Y-44870231D01*
X93301500Y-44811748D01*
X94150500Y-44811748D01*
X94162133Y-44870231D01*
X94166184Y-44876293D01*
X94166184Y-44876294D01*
X94193718Y-44917500D01*
X94206448Y-44936552D01*
X94212509Y-44940602D01*
X94249246Y-44965149D01*
X94272769Y-44980867D01*
X94317295Y-44989724D01*
X94327682Y-44991790D01*
X94327683Y-44991790D01*
X94331252Y-44992500D01*
X95020748Y-44992500D01*
X95024317Y-44991790D01*
X95024318Y-44991790D01*
X95034705Y-44989724D01*
X95079231Y-44980867D01*
X95102755Y-44965149D01*
X95139491Y-44940602D01*
X95145552Y-44936552D01*
X95158282Y-44917500D01*
X95185816Y-44876294D01*
X95185816Y-44876293D01*
X95189867Y-44870231D01*
X95201500Y-44811748D01*
X95201500Y-44372252D01*
X95189867Y-44313769D01*
X95183137Y-44303696D01*
X95149602Y-44253509D01*
X95145552Y-44247448D01*
X95108684Y-44222813D01*
X95085294Y-44207184D01*
X95085293Y-44207184D01*
X95079231Y-44203133D01*
X95025841Y-44192513D01*
X95024318Y-44192210D01*
X95024317Y-44192210D01*
X95020748Y-44191500D01*
X94331252Y-44191500D01*
X94327683Y-44192210D01*
X94327682Y-44192210D01*
X94326159Y-44192513D01*
X94272769Y-44203133D01*
X94266707Y-44207184D01*
X94266706Y-44207184D01*
X94243316Y-44222813D01*
X94206448Y-44247448D01*
X94202398Y-44253509D01*
X94168864Y-44303696D01*
X94162133Y-44313769D01*
X94150500Y-44372252D01*
X94150500Y-44811748D01*
X93301500Y-44811748D01*
X93301500Y-44372252D01*
X93289867Y-44313769D01*
X93283137Y-44303696D01*
X93249602Y-44253509D01*
X93245552Y-44247448D01*
X93208684Y-44222813D01*
X93185294Y-44207184D01*
X93185293Y-44207184D01*
X93179231Y-44203133D01*
X93125841Y-44192513D01*
X93124318Y-44192210D01*
X93124317Y-44192210D01*
X93120748Y-44191500D01*
X92550700Y-44191500D01*
X92503134Y-44174187D01*
X92477824Y-44130350D01*
X92476700Y-44117500D01*
X92476700Y-43766500D01*
X92494013Y-43718934D01*
X92537850Y-43693624D01*
X92550700Y-43692500D01*
X93120748Y-43692500D01*
X93124317Y-43691790D01*
X93124318Y-43691790D01*
X93134705Y-43689724D01*
X93179231Y-43680867D01*
X93194814Y-43670455D01*
X93239491Y-43640602D01*
X93245552Y-43636552D01*
X93264934Y-43607545D01*
X93285816Y-43576294D01*
X93285816Y-43576293D01*
X93289867Y-43570231D01*
X93301500Y-43511748D01*
X93301500Y-43072252D01*
X93289867Y-43013769D01*
X93272174Y-42987289D01*
X93249602Y-42953509D01*
X93245552Y-42947448D01*
X93222783Y-42932234D01*
X93185294Y-42907184D01*
X93185293Y-42907184D01*
X93179231Y-42903133D01*
X93134705Y-42894276D01*
X93124318Y-42892210D01*
X93124317Y-42892210D01*
X93120748Y-42891500D01*
X92431252Y-42891500D01*
X92427683Y-42892210D01*
X92427682Y-42892210D01*
X92417295Y-42894276D01*
X92372769Y-42903133D01*
X92366707Y-42907184D01*
X92366706Y-42907184D01*
X92329217Y-42932234D01*
X92306448Y-42947448D01*
X92306213Y-42947096D01*
X92265205Y-42966218D01*
X92258755Y-42966500D01*
X92218441Y-42966500D01*
X92211991Y-42966218D01*
X92178642Y-42963300D01*
X92178641Y-42963300D01*
X92172193Y-42962736D01*
X92133599Y-42973078D01*
X92127297Y-42974475D01*
X92117729Y-42976162D01*
X92094328Y-42980288D01*
X92094326Y-42980289D01*
X92087955Y-42981412D01*
X92082353Y-42984647D01*
X92077642Y-42986361D01*
X92072118Y-42988649D01*
X92067568Y-42990771D01*
X92061316Y-42992446D01*
X92056014Y-42996158D01*
X92056013Y-42996159D01*
X92028589Y-43015362D01*
X92023149Y-43018828D01*
X91988546Y-43038806D01*
X91987477Y-43036954D01*
X91948780Y-43051031D01*
X91909917Y-43038774D01*
X91909916Y-43038776D01*
X91801087Y-42988028D01*
X91751501Y-42981500D01*
X91580078Y-42981500D01*
X91532512Y-42964187D01*
X91527752Y-42959826D01*
X91123694Y-42555768D01*
X91119332Y-42551007D01*
X91117151Y-42548407D01*
X91103774Y-42532465D01*
X91086462Y-42484899D01*
X91103776Y-42437333D01*
X91147613Y-42412024D01*
X91160462Y-42410900D01*
X91212148Y-42410900D01*
X91215717Y-42410190D01*
X91215718Y-42410190D01*
X91226105Y-42408124D01*
X91270631Y-42399267D01*
X91336952Y-42354952D01*
X91345568Y-42342058D01*
X91377216Y-42294694D01*
X91377216Y-42294693D01*
X91381267Y-42288631D01*
X91392900Y-42230148D01*
X93291900Y-42230148D01*
X93303533Y-42288631D01*
X93307584Y-42294693D01*
X93307584Y-42294694D01*
X93339232Y-42342058D01*
X93347848Y-42354952D01*
X93414169Y-42399267D01*
X93421319Y-42400689D01*
X93421321Y-42400690D01*
X93438323Y-42404072D01*
X93453943Y-42407179D01*
X93497217Y-42433437D01*
X93509697Y-42474609D01*
X93513136Y-42474308D01*
X93513700Y-42480757D01*
X93513136Y-42487207D01*
X93518871Y-42508609D01*
X93523478Y-42525801D01*
X93524876Y-42532106D01*
X93528853Y-42554660D01*
X93531812Y-42571445D01*
X93535047Y-42577047D01*
X93536761Y-42581758D01*
X93539049Y-42587282D01*
X93541171Y-42591832D01*
X93542846Y-42598084D01*
X93546558Y-42603386D01*
X93546559Y-42603387D01*
X93565762Y-42630811D01*
X93569228Y-42636251D01*
X93589206Y-42670855D01*
X93594167Y-42675018D01*
X93594169Y-42675020D01*
X93619809Y-42696534D01*
X93624569Y-42700895D01*
X94128826Y-43205153D01*
X94150218Y-43251030D01*
X94150500Y-43257479D01*
X94150500Y-43511748D01*
X94162133Y-43570231D01*
X94166184Y-43576293D01*
X94166184Y-43576294D01*
X94187066Y-43607545D01*
X94206448Y-43636552D01*
X94212509Y-43640602D01*
X94257187Y-43670455D01*
X94272769Y-43680867D01*
X94317295Y-43689724D01*
X94327682Y-43691790D01*
X94327683Y-43691790D01*
X94331252Y-43692500D01*
X94581314Y-43692500D01*
X94628880Y-43709812D01*
X94629384Y-43710235D01*
X94633545Y-43715194D01*
X94639152Y-43718431D01*
X94639153Y-43718432D01*
X94668144Y-43735170D01*
X94673588Y-43738638D01*
X94706316Y-43761554D01*
X94712570Y-43763230D01*
X94717087Y-43765336D01*
X94722662Y-43767646D01*
X94727350Y-43769352D01*
X94732955Y-43772588D01*
X94739327Y-43773712D01*
X94739328Y-43773712D01*
X94772304Y-43779527D01*
X94778604Y-43780924D01*
X94796415Y-43785696D01*
X94817193Y-43791263D01*
X94856982Y-43787782D01*
X94863432Y-43787500D01*
X95312108Y-43787500D01*
X95359674Y-43804813D01*
X95364434Y-43809174D01*
X95440484Y-43885224D01*
X95549313Y-43935972D01*
X95598899Y-43942500D01*
X95808713Y-43942500D01*
X96018700Y-43942499D01*
X96021107Y-43942182D01*
X96021110Y-43942182D01*
X96062675Y-43936711D01*
X96062677Y-43936710D01*
X96068287Y-43935972D01*
X96073414Y-43933581D01*
X96073415Y-43933581D01*
X96111337Y-43915897D01*
X96177116Y-43885224D01*
X96262024Y-43800316D01*
X96312772Y-43691487D01*
X96319300Y-43641901D01*
X96319299Y-43282100D01*
X96315650Y-43254377D01*
X96313511Y-43238125D01*
X96313510Y-43238123D01*
X96312772Y-43232513D01*
X96262024Y-43123684D01*
X96177116Y-43038776D01*
X96068287Y-42988028D01*
X96018701Y-42981500D01*
X95808887Y-42981500D01*
X95598900Y-42981501D01*
X95596493Y-42981818D01*
X95596490Y-42981818D01*
X95554925Y-42987289D01*
X95554923Y-42987290D01*
X95549313Y-42988028D01*
X95544186Y-42990419D01*
X95544185Y-42990419D01*
X95531876Y-42996159D01*
X95440484Y-43038776D01*
X95364434Y-43114826D01*
X95318558Y-43136218D01*
X95312108Y-43136500D01*
X95274539Y-43136500D01*
X95226973Y-43119187D01*
X95201663Y-43075350D01*
X95201500Y-43074161D01*
X95201500Y-43072252D01*
X95200792Y-43068690D01*
X95200791Y-43068685D01*
X95193962Y-43034358D01*
X95189867Y-43013769D01*
X95172174Y-42987289D01*
X95149602Y-42953509D01*
X95145552Y-42947448D01*
X95122783Y-42932234D01*
X95085294Y-42907184D01*
X95085293Y-42907184D01*
X95079231Y-42903133D01*
X95034705Y-42894276D01*
X95024318Y-42892210D01*
X95024317Y-42892210D01*
X95020748Y-42891500D01*
X94766479Y-42891500D01*
X94718913Y-42874187D01*
X94714153Y-42869826D01*
X94516177Y-42671850D01*
X94318182Y-42473856D01*
X94296790Y-42427980D01*
X94309891Y-42379085D01*
X94329393Y-42360003D01*
X94330891Y-42359002D01*
X94336952Y-42354952D01*
X94345568Y-42342058D01*
X94377216Y-42294694D01*
X94377216Y-42294693D01*
X94381267Y-42288631D01*
X94392900Y-42230148D01*
X94392900Y-41230148D01*
X94541900Y-41230148D01*
X94553533Y-41288631D01*
X94557584Y-41294693D01*
X94557584Y-41294694D01*
X94568401Y-41310882D01*
X94597848Y-41354952D01*
X94603909Y-41359002D01*
X94649832Y-41389687D01*
X94664169Y-41399267D01*
X94699059Y-41406207D01*
X94719082Y-41410190D01*
X94719083Y-41410190D01*
X94722652Y-41410900D01*
X95762148Y-41410900D01*
X95765717Y-41410190D01*
X95765718Y-41410190D01*
X95785741Y-41406207D01*
X95820631Y-41399267D01*
X95834969Y-41389687D01*
X95880891Y-41359002D01*
X95886952Y-41354952D01*
X95916399Y-41310882D01*
X95927216Y-41294694D01*
X95927216Y-41294693D01*
X95931267Y-41288631D01*
X95942900Y-41230148D01*
X95942900Y-40390652D01*
X95941752Y-40384878D01*
X95932689Y-40339320D01*
X95931267Y-40332169D01*
X95899878Y-40285192D01*
X95891002Y-40271909D01*
X95886952Y-40265848D01*
X95841797Y-40235676D01*
X95826694Y-40225584D01*
X95826693Y-40225584D01*
X95820631Y-40221533D01*
X95776105Y-40212676D01*
X95765718Y-40210610D01*
X95765717Y-40210610D01*
X95762148Y-40209900D01*
X94722652Y-40209900D01*
X94719083Y-40210610D01*
X94719082Y-40210610D01*
X94708695Y-40212676D01*
X94664169Y-40221533D01*
X94658107Y-40225584D01*
X94658106Y-40225584D01*
X94643003Y-40235676D01*
X94597848Y-40265848D01*
X94593798Y-40271909D01*
X94584923Y-40285192D01*
X94553533Y-40332169D01*
X94552111Y-40339320D01*
X94543049Y-40384878D01*
X94541900Y-40390652D01*
X94541900Y-41230148D01*
X94392900Y-41230148D01*
X94392900Y-40690652D01*
X94381267Y-40632169D01*
X94371907Y-40618160D01*
X94341002Y-40571909D01*
X94336952Y-40565848D01*
X94270631Y-40521533D01*
X94224475Y-40512352D01*
X94215718Y-40510610D01*
X94215717Y-40510610D01*
X94212148Y-40509900D01*
X93472652Y-40509900D01*
X93469083Y-40510610D01*
X93469082Y-40510610D01*
X93460325Y-40512352D01*
X93414169Y-40521533D01*
X93347848Y-40565848D01*
X93343798Y-40571909D01*
X93312894Y-40618160D01*
X93303533Y-40632169D01*
X93291900Y-40690652D01*
X93291900Y-42230148D01*
X91392900Y-42230148D01*
X91392900Y-42026495D01*
X91410213Y-41978929D01*
X91452123Y-41956125D01*
X91451699Y-41954570D01*
X91584927Y-41918248D01*
X91584929Y-41918247D01*
X91590017Y-41916860D01*
X91712191Y-41841845D01*
X91808400Y-41735554D01*
X91870910Y-41606533D01*
X91894696Y-41465154D01*
X91894847Y-41452800D01*
X91874523Y-41310882D01*
X91815184Y-41180372D01*
X91721600Y-41071763D01*
X91717181Y-41068899D01*
X91717179Y-41068897D01*
X91673154Y-41040362D01*
X91601295Y-40993785D01*
X91523756Y-40970596D01*
X91468993Y-40954218D01*
X91468990Y-40954218D01*
X91463939Y-40952707D01*
X91458667Y-40952675D01*
X91455959Y-40952270D01*
X91411475Y-40928115D01*
X91392900Y-40879083D01*
X91392900Y-40690652D01*
X91381267Y-40632169D01*
X91371907Y-40618160D01*
X91341002Y-40571909D01*
X91336952Y-40565848D01*
X91270631Y-40521533D01*
X91224475Y-40512352D01*
X91215718Y-40510610D01*
X91215717Y-40510610D01*
X91212148Y-40509900D01*
X90472652Y-40509900D01*
X90469083Y-40510610D01*
X90469082Y-40510610D01*
X90460325Y-40512352D01*
X90414169Y-40521533D01*
X90347848Y-40565848D01*
X90343798Y-40571909D01*
X90312894Y-40618160D01*
X90303533Y-40632169D01*
X90291900Y-40690652D01*
X90291900Y-41342121D01*
X90274587Y-41389687D01*
X90230750Y-41414997D01*
X90180900Y-41406207D01*
X90165574Y-41394447D01*
X90013699Y-41242573D01*
X90009337Y-41237813D01*
X89987818Y-41212167D01*
X89987817Y-41212166D01*
X89983655Y-41207206D01*
X89949051Y-41187228D01*
X89943612Y-41183763D01*
X89943525Y-41183702D01*
X89924455Y-41170349D01*
X89895422Y-41128885D01*
X89892900Y-41109732D01*
X89892900Y-40690652D01*
X89881267Y-40632169D01*
X89871907Y-40618160D01*
X89841002Y-40571909D01*
X89836952Y-40565848D01*
X89770631Y-40521533D01*
X89724475Y-40512352D01*
X89715718Y-40510610D01*
X89715717Y-40510610D01*
X89712148Y-40509900D01*
X89697550Y-40509900D01*
X89649984Y-40492587D01*
X89636932Y-40478344D01*
X89619038Y-40452788D01*
X89615570Y-40447344D01*
X89598832Y-40418353D01*
X89598831Y-40418352D01*
X89595594Y-40412745D01*
X89590636Y-40408585D01*
X89590632Y-40408580D01*
X89564991Y-40387065D01*
X89560231Y-40382704D01*
X88959031Y-39781505D01*
X89391431Y-39781505D01*
X89431012Y-39946368D01*
X89508775Y-40097031D01*
X89511704Y-40100389D01*
X89511705Y-40100390D01*
X89607856Y-40210610D01*
X89620231Y-40224796D01*
X89623885Y-40227364D01*
X89623886Y-40227365D01*
X89640226Y-40238849D01*
X89758947Y-40322287D01*
X89916913Y-40383876D01*
X90046226Y-40400900D01*
X90134916Y-40400900D01*
X90137129Y-40400632D01*
X90137132Y-40400632D01*
X90256291Y-40386212D01*
X90260720Y-40385676D01*
X90383398Y-40339320D01*
X90415153Y-40327321D01*
X90415155Y-40327320D01*
X90419323Y-40325745D01*
X90481904Y-40282734D01*
X90555369Y-40232243D01*
X90555371Y-40232241D01*
X90559051Y-40229712D01*
X90671840Y-40103121D01*
X90751176Y-39953281D01*
X90752263Y-39948954D01*
X90791394Y-39793169D01*
X90791394Y-39793168D01*
X90792481Y-39788841D01*
X90792519Y-39781505D01*
X92391431Y-39781505D01*
X92431012Y-39946368D01*
X92508775Y-40097031D01*
X92511704Y-40100389D01*
X92511705Y-40100390D01*
X92607856Y-40210610D01*
X92620231Y-40224796D01*
X92623885Y-40227364D01*
X92623886Y-40227365D01*
X92640226Y-40238849D01*
X92758947Y-40322287D01*
X92916913Y-40383876D01*
X93046226Y-40400900D01*
X93134916Y-40400900D01*
X93137129Y-40400632D01*
X93137132Y-40400632D01*
X93256291Y-40386212D01*
X93260720Y-40385676D01*
X93383398Y-40339320D01*
X93415153Y-40327321D01*
X93415155Y-40327320D01*
X93419323Y-40325745D01*
X93481904Y-40282734D01*
X93555369Y-40232243D01*
X93555371Y-40232241D01*
X93559051Y-40229712D01*
X93671840Y-40103121D01*
X93751176Y-39953281D01*
X93752263Y-39948954D01*
X93791394Y-39793169D01*
X93791394Y-39793168D01*
X93792481Y-39788841D01*
X93793197Y-39652162D01*
X93793346Y-39623754D01*
X93793346Y-39623751D01*
X93793369Y-39619295D01*
X93753788Y-39454432D01*
X93676025Y-39303769D01*
X93673095Y-39300410D01*
X93567504Y-39179368D01*
X93567502Y-39179366D01*
X93564569Y-39176004D01*
X93557575Y-39171088D01*
X93468597Y-39108554D01*
X93425853Y-39078513D01*
X93267887Y-39016924D01*
X93138574Y-38999900D01*
X93049884Y-38999900D01*
X93047671Y-39000168D01*
X93047668Y-39000168D01*
X92928509Y-39014588D01*
X92924080Y-39015124D01*
X92822535Y-39053495D01*
X92769647Y-39073479D01*
X92769645Y-39073480D01*
X92765477Y-39075055D01*
X92726816Y-39101626D01*
X92629431Y-39168557D01*
X92629429Y-39168559D01*
X92625749Y-39171088D01*
X92609552Y-39189267D01*
X92544107Y-39262721D01*
X92512960Y-39297679D01*
X92433624Y-39447519D01*
X92432537Y-39451845D01*
X92432537Y-39451846D01*
X92431888Y-39454432D01*
X92392319Y-39611959D01*
X92392099Y-39654013D01*
X92391695Y-39731168D01*
X92391431Y-39781505D01*
X90792519Y-39781505D01*
X90793197Y-39652162D01*
X90793346Y-39623754D01*
X90793346Y-39623751D01*
X90793369Y-39619295D01*
X90753788Y-39454432D01*
X90676025Y-39303769D01*
X90673095Y-39300410D01*
X90567504Y-39179368D01*
X90567502Y-39179366D01*
X90564569Y-39176004D01*
X90557575Y-39171088D01*
X90468597Y-39108554D01*
X90425853Y-39078513D01*
X90267887Y-39016924D01*
X90138574Y-38999900D01*
X90049884Y-38999900D01*
X90047671Y-39000168D01*
X90047668Y-39000168D01*
X89928509Y-39014588D01*
X89924080Y-39015124D01*
X89822535Y-39053495D01*
X89769647Y-39073479D01*
X89769645Y-39073480D01*
X89765477Y-39075055D01*
X89726816Y-39101626D01*
X89629431Y-39168557D01*
X89629429Y-39168559D01*
X89625749Y-39171088D01*
X89609552Y-39189267D01*
X89544107Y-39262721D01*
X89512960Y-39297679D01*
X89433624Y-39447519D01*
X89432537Y-39451845D01*
X89432537Y-39451846D01*
X89431888Y-39454432D01*
X89392319Y-39611959D01*
X89392099Y-39654013D01*
X89391695Y-39731168D01*
X89391431Y-39781505D01*
X88959031Y-39781505D01*
X88888500Y-39710974D01*
X88884139Y-39706214D01*
X88862621Y-39680570D01*
X88862618Y-39680568D01*
X88858455Y-39675606D01*
X88823851Y-39655628D01*
X88818411Y-39652162D01*
X88790987Y-39632959D01*
X88790986Y-39632958D01*
X88785684Y-39629246D01*
X88779432Y-39627571D01*
X88774882Y-39625449D01*
X88769358Y-39623161D01*
X88764647Y-39621447D01*
X88759045Y-39618212D01*
X88752674Y-39617089D01*
X88752672Y-39617088D01*
X88723580Y-39611959D01*
X88719703Y-39611275D01*
X88713401Y-39609878D01*
X88674807Y-39599536D01*
X88668359Y-39600100D01*
X88668358Y-39600100D01*
X88635009Y-39603018D01*
X88628559Y-39603300D01*
X87393441Y-39603300D01*
X87386991Y-39603018D01*
X87353642Y-39600100D01*
X87353641Y-39600100D01*
X87347193Y-39599536D01*
X87308599Y-39609878D01*
X87302297Y-39611275D01*
X87298420Y-39611959D01*
X87269328Y-39617088D01*
X87269326Y-39617089D01*
X87262955Y-39618212D01*
X87257353Y-39621447D01*
X87252642Y-39623161D01*
X87247118Y-39625449D01*
X87242568Y-39627571D01*
X87236316Y-39629246D01*
X87231014Y-39632958D01*
X87231013Y-39632959D01*
X87203589Y-39652162D01*
X87198149Y-39655628D01*
X87171237Y-39671165D01*
X87169154Y-39672368D01*
X87163545Y-39675606D01*
X87159383Y-39680566D01*
X87159382Y-39680567D01*
X87137860Y-39706215D01*
X87133499Y-39710975D01*
X86636059Y-40208415D01*
X86590183Y-40229807D01*
X86578987Y-40229747D01*
X86577748Y-40229500D01*
X85088252Y-40229500D01*
X85084683Y-40230210D01*
X85084682Y-40230210D01*
X85074462Y-40232243D01*
X85041252Y-40238849D01*
X84991222Y-40231149D01*
X84957846Y-40193092D01*
X84953448Y-40175929D01*
X84949320Y-40144570D01*
X84949319Y-40144568D01*
X84948687Y-40139764D01*
X84890698Y-39999767D01*
X84798451Y-39879549D01*
X84678233Y-39787302D01*
X84538236Y-39729313D01*
X84533434Y-39728681D01*
X84533431Y-39728680D01*
X84450820Y-39717805D01*
X84425720Y-39714500D01*
X84350280Y-39714500D01*
X84325180Y-39717805D01*
X84242569Y-39728680D01*
X84242566Y-39728681D01*
X84237764Y-39729313D01*
X84097767Y-39787302D01*
X83977549Y-39879549D01*
X83885302Y-39999767D01*
X83827313Y-40139764D01*
X83826681Y-40144566D01*
X83826680Y-40144569D01*
X83815282Y-40231149D01*
X83807534Y-40290000D01*
X83808167Y-40294808D01*
X83823694Y-40412745D01*
X83827313Y-40440236D01*
X83885302Y-40580233D01*
X83977549Y-40700451D01*
X84097767Y-40792698D01*
X84237764Y-40850687D01*
X84242570Y-40851320D01*
X84242571Y-40851320D01*
X84246509Y-40851838D01*
X84249128Y-40852183D01*
X84294028Y-40875554D01*
X84313401Y-40922319D01*
X84298182Y-40970596D01*
X84291798Y-40977876D01*
X84214848Y-41054826D01*
X84168972Y-41076218D01*
X84162522Y-41076500D01*
X83583430Y-41076500D01*
X83576980Y-41076218D01*
X83543642Y-41073301D01*
X83543641Y-41073301D01*
X83537193Y-41072737D01*
X83498610Y-41083076D01*
X83492308Y-41084473D01*
X83476720Y-41087222D01*
X83459329Y-41090288D01*
X83459328Y-41090288D01*
X83452955Y-41091412D01*
X83447350Y-41094648D01*
X83442654Y-41096357D01*
X83437121Y-41098649D01*
X83432569Y-41100771D01*
X83426316Y-41102447D01*
X83421016Y-41106158D01*
X83421014Y-41106159D01*
X83393592Y-41125360D01*
X83388148Y-41128828D01*
X83353545Y-41148806D01*
X83349385Y-41153764D01*
X83349380Y-41153768D01*
X83327865Y-41179409D01*
X83323504Y-41184169D01*
X82941774Y-41565900D01*
X82937014Y-41570261D01*
X82911370Y-41591779D01*
X82911368Y-41591782D01*
X82906406Y-41595945D01*
X82897336Y-41611656D01*
X82886431Y-41630544D01*
X82882962Y-41635989D01*
X82863759Y-41663413D01*
X82860046Y-41668716D01*
X82858371Y-41674968D01*
X82856249Y-41679518D01*
X82853961Y-41685042D01*
X82852247Y-41689753D01*
X82849012Y-41695355D01*
X82847889Y-41701726D01*
X82847888Y-41701728D01*
X82842076Y-41734694D01*
X82840679Y-41740996D01*
X82830336Y-41779593D01*
X82830900Y-41786041D01*
X82830900Y-41786042D01*
X82833818Y-41819391D01*
X82834100Y-41825841D01*
X82834100Y-44534159D01*
X82833818Y-44540609D01*
X82831329Y-44569060D01*
X82830336Y-44580407D01*
X79448500Y-44580407D01*
X79448500Y-38639423D01*
X79450411Y-38622713D01*
X79452708Y-38612802D01*
X79453655Y-38608718D01*
X79453656Y-38608000D01*
X79452729Y-38603934D01*
X79452356Y-38600606D01*
X79452808Y-38580803D01*
X79461717Y-38524551D01*
X79468869Y-38502537D01*
X79501907Y-38437696D01*
X79515513Y-38418970D01*
X79566970Y-38367513D01*
X79585696Y-38353907D01*
X79650537Y-38320869D01*
X79672552Y-38313717D01*
X79729557Y-38304689D01*
X79741259Y-38303778D01*
X79747520Y-38303789D01*
X79755641Y-38305656D01*
X79763768Y-38303817D01*
X79763770Y-38303817D01*
X79770362Y-38302325D01*
X79786694Y-38300500D01*
X79833203Y-38300500D01*
X79880769Y-38317813D01*
G37*
%TD.AperFunction*%
%TA.AperFunction,Conductor*%
G36*
X84875945Y-41400861D02*
G01*
X84904979Y-41442325D01*
X84907500Y-41461478D01*
X84907500Y-41599748D01*
X84908210Y-41603317D01*
X84908210Y-41603318D01*
X84914709Y-41635989D01*
X84917995Y-41652510D01*
X84917995Y-41652511D01*
X84919133Y-41658231D01*
X84918253Y-41658406D01*
X84920084Y-41700346D01*
X84919133Y-41701769D01*
X84917712Y-41708914D01*
X84917711Y-41708916D01*
X84908210Y-41756682D01*
X84907500Y-41760252D01*
X84907500Y-42098971D01*
X84890187Y-42146537D01*
X84861819Y-42167338D01*
X84857656Y-42169063D01*
X84850505Y-42170485D01*
X84824812Y-42187653D01*
X84782378Y-42216006D01*
X84782377Y-42216007D01*
X84759376Y-42231376D01*
X84755327Y-42237436D01*
X84748058Y-42248315D01*
X84738855Y-42259529D01*
X84665529Y-42332855D01*
X84654318Y-42342056D01*
X84637376Y-42353376D01*
X84576485Y-42444505D01*
X84575063Y-42451656D01*
X84572804Y-42463011D01*
X84557101Y-42541957D01*
X84555103Y-42552000D01*
X84556525Y-42559149D01*
X84559078Y-42571983D01*
X84560500Y-42586420D01*
X84560500Y-42970272D01*
X84543187Y-43017838D01*
X84499350Y-43043148D01*
X84449500Y-43034358D01*
X84419136Y-43000900D01*
X84416981Y-42996159D01*
X84410803Y-42982572D01*
X84317219Y-42873963D01*
X84312800Y-42871099D01*
X84312798Y-42871097D01*
X84272887Y-42845228D01*
X84196914Y-42795985D01*
X84083593Y-42762095D01*
X84064611Y-42756418D01*
X84064610Y-42756418D01*
X84059558Y-42754907D01*
X83985922Y-42754457D01*
X83921465Y-42754063D01*
X83921464Y-42754063D01*
X83916195Y-42754031D01*
X83778348Y-42793428D01*
X83657099Y-42869930D01*
X83653613Y-42873878D01*
X83653611Y-42873879D01*
X83645462Y-42883106D01*
X83618356Y-42913799D01*
X83614566Y-42918090D01*
X83570102Y-42942283D01*
X83520491Y-42932234D01*
X83488945Y-42892647D01*
X83485100Y-42869105D01*
X83485100Y-41973878D01*
X83502413Y-41926312D01*
X83506774Y-41921552D01*
X83679153Y-41749174D01*
X83725030Y-41727782D01*
X83731479Y-41727500D01*
X84310559Y-41727500D01*
X84317009Y-41727782D01*
X84350358Y-41730700D01*
X84350359Y-41730700D01*
X84356807Y-41731264D01*
X84395404Y-41720921D01*
X84401703Y-41719525D01*
X84411271Y-41717838D01*
X84434672Y-41713712D01*
X84434674Y-41713711D01*
X84441045Y-41712588D01*
X84446647Y-41709353D01*
X84451358Y-41707639D01*
X84456882Y-41705351D01*
X84461432Y-41703229D01*
X84467684Y-41701554D01*
X84494520Y-41682763D01*
X84500411Y-41678638D01*
X84505851Y-41675172D01*
X84540455Y-41655194D01*
X84545566Y-41649103D01*
X84566140Y-41624585D01*
X84570501Y-41619825D01*
X84781174Y-41409152D01*
X84827050Y-41387760D01*
X84875945Y-41400861D01*
G37*
%TD.AperFunction*%
%TD*%
M02*
